<svg width="173" height="173" viewBox="0 0 173 173" fill="none" xmlns="http://www.w3.org/2000/svg">
<rect width="141.916" height="141.916" transform="translate(15.999 16)" fill="white"/>
<rect x="122.058" y="36.7832" width="21.3188" height="60.2988" transform="rotate(45 122.058 36.7832)" fill="url(#paint0_linear_1448_155)"/>
<rect width="21.3188" height="60.2988" transform="matrix(0.707107 0.707107 0.707107 -0.707107 36.7822 122.058)" fill="url(#paint1_linear_1448_155)"/>
<rect x="36.7822" y="51.8579" width="21.3188" height="60.2988" transform="rotate(-45 36.7822 51.8579)" fill="url(#paint2_linear_1448_155)"/>
<rect width="21.3188" height="60.2988" transform="matrix(0.707107 -0.707107 -0.707107 -0.707107 122.058 137.133)" fill="url(#paint3_linear_1448_155)"/>
<rect x="76.2979" y="26.6594" width="21.3188" height="60.2988" fill="url(#paint4_linear_1448_155)"/>
<rect width="21.3188" height="60.2988" transform="matrix(1 0 0 -1 76.2976 147.257)" fill="url(#paint5_linear_1448_155)"/>
<rect x="26.6584" y="97.6177" width="21.3188" height="60.2988" transform="rotate(-90 26.6584 97.6177)" fill="url(#paint6_linear_1448_155)"/>
<rect width="21.3188" height="60.2988" transform="matrix(0 -1 -1 0 147.256 97.6177)" fill="url(#paint7_linear_1448_155)"/>
<g opacity="0.5" filter="url(#filter0_f_1448_155)">
<circle cx="86.957" cy="86.9583" r="56.0352" fill="#8D8FFF"/>
</g>
<g clip-path="url(#clip0_1448_155)">
<rect x="41.7024" y="86.9583" width="64" height="64" rx="10" transform="rotate(-45 41.7024 86.9583)" fill="#636BFF"/>
<rect x="41.7024" y="86.9583" width="64" height="64" rx="10" transform="rotate(-45 41.7024 86.9583)" fill="#002532"/>
<rect x="78.9573" y="41.7034" width="16" height="45.2549" fill="url(#paint8_linear_1448_155)" fill-opacity="0.1"/>
<rect width="16" height="45.2549" transform="matrix(1 0 0 -1 78.9573 132.213)" fill="url(#paint9_linear_1448_155)" fill-opacity="0.1"/>
<rect x="41.7024" y="94.9583" width="16" height="45.2549" transform="rotate(-90 41.7024 94.9583)" fill="url(#paint10_linear_1448_155)" fill-opacity="0.1"/>
<rect width="16" height="45.2549" transform="matrix(0 -1 -1 0 132.212 94.9583)" fill="url(#paint11_linear_1448_155)" fill-opacity="0.1"/>
<rect x="113.3" y="49.3013" width="16" height="45.2549" transform="rotate(45 113.3 49.3013)" fill="url(#paint12_linear_1448_155)" fill-opacity="0.04"/>
<rect width="16" height="45.2549" transform="matrix(0.707107 0.707107 0.707107 -0.707107 49.3003 113.301)" fill="url(#paint13_linear_1448_155)" fill-opacity="0.04"/>
<rect x="49.3003" y="60.615" width="16" height="45.2549" transform="rotate(-45 49.3003 60.615)" fill="url(#paint14_linear_1448_155)" fill-opacity="0.04"/>
<rect width="16" height="45.2549" transform="matrix(0.707107 -0.707107 -0.707107 -0.707107 113.3 124.615)" fill="url(#paint15_linear_1448_155)" fill-opacity="0.04"/>
<path d="M72.4507 93.2949L83.0573 82.6883M96.414 77.9716L93.239 87.4983C93.1881 87.6506 93.1013 87.7885 92.9858 87.9002C92.8703 88.0119 92.7296 88.0941 92.5757 88.1399L73.1123 93.9266C72.937 93.9787 72.7507 93.9817 72.5738 93.9352C72.3969 93.8888 72.2361 93.7947 72.1089 93.6632C71.9817 93.5318 71.893 93.3679 71.8525 93.1896C71.812 93.0112 71.8211 92.8251 71.879 92.6516L78.199 73.6949C78.2443 73.5588 78.3183 73.4341 78.4161 73.3291C78.5139 73.2241 78.6331 73.1414 78.7657 73.0866L87.744 69.3899C87.9265 69.3145 88.1273 69.2949 88.321 69.3335C88.5147 69.372 88.6926 69.4671 88.8323 69.6066L96.1723 76.9483C96.3037 77.0796 96.3958 77.2449 96.4385 77.4256C96.4812 77.6064 96.4727 77.7954 96.414 77.9716Z" stroke="#636BFF" stroke-width="2" stroke-linecap="round" stroke-linejoin="round"/>
<path d="M97.6291 64.2615L101.569 68.2015C101.865 68.4848 102.102 68.8243 102.265 69.2003C102.428 69.5762 102.514 69.9809 102.519 70.3906C102.523 70.8003 102.446 71.2069 102.291 71.5863C102.136 71.9657 101.907 72.3104 101.618 72.6002C101.328 72.8899 100.983 73.1188 100.604 73.2736C100.224 73.4283 99.8179 73.5056 99.4081 73.5011C98.9984 73.4966 98.5937 73.4102 98.2178 73.2472C97.8419 73.0841 97.5023 72.8476 97.2191 72.5515L93.2774 68.6115C92.7214 68.0304 92.4151 67.2548 92.424 66.4506C92.4329 65.6465 92.7563 64.8778 93.325 64.3091C93.8936 63.7404 94.6623 63.417 95.4665 63.4081C96.2706 63.3993 97.048 63.7056 97.6291 64.2615Z" stroke="#636BFF" stroke-width="2" stroke-linecap="round" stroke-linejoin="round"/>
<path d="M86.5924 79.1514C86.3618 78.9126 86.0859 78.7222 85.7809 78.5912C85.4759 78.4601 85.1479 78.3912 84.8159 78.3883C84.484 78.3854 84.1548 78.4486 83.8475 78.5744C83.5403 78.7001 83.2612 78.8857 83.0264 79.1204C82.7917 79.3551 82.6061 79.6343 82.4804 79.9415C82.3547 80.2488 82.2914 80.578 82.2943 80.9099C82.2972 81.2419 82.3661 81.5699 82.4972 81.8749C82.6282 82.1799 82.8186 82.4558 83.0574 82.6864C83.5289 83.1418 84.1604 83.3938 84.8159 83.3881C85.4714 83.3824 86.0984 83.1195 86.562 82.656C87.0255 82.1924 87.2884 81.5654 87.2941 80.9099C87.2998 80.2544 87.0478 79.6229 86.5924 79.1514Z" stroke="#636BFF" stroke-width="2" stroke-linecap="round" stroke-linejoin="round"/>
</g>
<rect x="40.2882" y="86.9583" width="66" height="66" rx="11" transform="rotate(-45 40.2882 86.9583)" stroke="#636BFF" stroke-width="2"/>
<g filter="url(#filter1_d_1448_155)">
<rect x="47" y="94" width="80" height="19" rx="9.5" fill="#202020" shape-rendering="crispEdges"/>
<rect x="47.5" y="94.5" width="79" height="18" rx="9" stroke="#2E2E2E" shape-rendering="crispEdges"/>
<path d="M55.9421 106.659H60.6221L60.3941 107.979H54.3341L55.8101 99.579H61.8701L61.6421 100.899H56.9621L56.5781 103.059H60.3581L60.1301 104.379H56.3501L55.9421 106.659ZM66.8549 99.339C67.9509 99.339 68.8469 99.623 69.5429 100.191C70.2469 100.759 70.7069 101.515 70.9229 102.459H69.4829C69.4749 102.451 69.4669 102.435 69.4589 102.411C69.4509 102.387 69.4429 102.363 69.4349 102.339C69.3789 102.195 69.2989 102.047 69.1949 101.895C69.0989 101.735 68.9469 101.555 68.7389 101.355C68.5389 101.147 68.2629 100.979 67.9109 100.851C67.5669 100.723 67.1749 100.659 66.7349 100.659C65.7909 100.659 65.0029 100.987 64.3709 101.643C63.7469 102.291 63.4349 103.123 63.4349 104.139C63.4349 104.955 63.6989 105.619 64.2269 106.131C64.7549 106.643 65.4509 106.899 66.3149 106.899C67.2269 106.899 67.9949 106.579 68.6189 105.939C68.8829 105.667 69.0989 105.347 69.2669 104.979H70.7549C70.5309 105.587 70.2069 106.127 69.7829 106.599C68.8629 107.679 67.6669 108.219 66.1949 108.219C64.9389 108.219 63.9229 107.843 63.1469 107.091C62.3789 106.331 61.9949 105.347 61.9949 104.139C61.9949 102.819 62.4669 101.691 63.4109 100.755C64.3629 99.811 65.5109 99.339 66.8549 99.339ZM74.5283 100.899H71.7683L71.9963 99.579H78.8963L78.6683 100.899H75.9083L74.6603 107.979H73.2803L74.5283 100.899ZM82.7933 103.659H80.6693L80.1413 106.659H82.7453C83.3053 106.659 83.7413 106.511 84.0533 106.215C84.3733 105.911 84.5333 105.499 84.5333 104.979C84.5333 104.603 84.3813 104.291 84.0773 104.043C83.7733 103.787 83.3453 103.659 82.7933 103.659ZM80.9093 102.339H82.9733C83.8533 102.339 84.5733 102.595 85.1333 103.107C85.6933 103.619 85.9733 104.243 85.9733 104.979C85.9733 105.803 85.6533 106.511 85.0133 107.103C84.3813 107.687 83.5813 107.979 82.6133 107.979H78.5333L80.0093 99.579H81.3893L80.9093 102.339ZM94.9604 107.979L93.0764 104.379H91.5884L90.9524 107.979H89.5724L91.0484 99.579H92.4284L91.8164 103.059H93.0764L96.2084 99.579H97.9484L94.3004 103.599L96.5924 107.979H94.9604ZM98.4755 104.739L97.3475 99.579H98.7875L99.6155 103.419H100.996L103.168 99.579H104.668L99.8315 107.979H98.3315L100.216 104.739H98.4755ZM110.14 99.579L110.692 106.659H111.652L111.148 109.539H109.828L110.104 107.979H103.804L103.528 109.539H102.208L102.712 106.659H103.672L106.72 99.579H110.14ZM107.548 100.899L105.088 106.659H109.288L108.868 100.899H107.548ZM118.706 99.579L119.45 107.979H118.034L117.842 105.819H113.978L113.054 107.979H111.65L115.286 99.579H118.706ZM116.102 100.899L114.566 104.499H117.734L117.422 100.899H116.102Z" fill="white"/>
</g>
<g filter="url(#filter2_d_1448_155)">
<rect x="53" y="112" width="70" height="16" rx="8" fill="#002532" shape-rendering="crispEdges"/>
<rect x="53.5" y="112.5" width="69" height="15" rx="7.5" stroke="#636BFF" shape-rendering="crispEdges"/>
<path d="M63.6494 116.646C64.3801 116.646 64.9774 116.835 65.4414 117.214C65.9108 117.592 66.2174 118.096 66.3614 118.726H65.4014C65.3961 118.72 65.3908 118.71 65.3854 118.694C65.3801 118.678 65.3748 118.662 65.3694 118.646C65.3321 118.55 65.2788 118.451 65.2094 118.35C65.1454 118.243 65.0441 118.123 64.9054 117.99C64.7721 117.851 64.5881 117.739 64.3534 117.654C64.1241 117.568 63.8628 117.526 63.5694 117.526C62.9401 117.526 62.4148 117.744 61.9934 118.182C61.5774 118.614 61.3694 119.168 61.3694 119.846C61.3694 120.39 61.5454 120.832 61.8974 121.174C62.2494 121.515 62.7134 121.686 63.2894 121.686C63.8974 121.686 64.4094 121.472 64.8254 121.046C65.0014 120.864 65.1454 120.651 65.2574 120.406H66.2494C66.1001 120.811 65.8841 121.171 65.6014 121.486C64.9881 122.206 64.1908 122.566 63.2094 122.566C62.3721 122.566 61.6948 122.315 61.1774 121.814C60.6654 121.307 60.4094 120.651 60.4094 119.846C60.4094 118.966 60.7241 118.214 61.3534 117.59C61.9881 116.96 62.7534 116.646 63.6494 116.646ZM68.7651 117.686H66.9251L67.0771 116.806H71.6771L71.5251 117.686H69.6851L68.8531 122.406H67.9331L68.7651 117.686ZM74.6351 117.686H73.1871L72.8351 119.686H74.5551C74.9337 119.686 75.2271 119.587 75.4351 119.39C75.6484 119.187 75.7551 118.915 75.7551 118.574C75.7551 118.318 75.6564 118.107 75.4591 117.942C75.2617 117.771 74.9871 117.686 74.6351 117.686ZM72.4191 116.806H74.7151C75.2964 116.806 75.7737 116.974 76.1471 117.31C76.5257 117.646 76.7151 118.051 76.7151 118.526C76.7151 119.096 76.5044 119.579 76.0831 119.974C75.6617 120.368 75.1257 120.566 74.4751 120.566H72.6831L72.3551 122.406H71.4351L72.4191 116.806ZM77.9446 121.526H81.0646L80.9126 122.406H76.8726L77.8566 116.806H81.8966L81.7446 117.686H78.6246L78.3686 119.126H80.8886L80.7366 120.006H78.2166L77.9446 121.526ZM83.4838 117.726H83.4038L83.3478 118.486L82.6598 122.406H81.7398L82.7238 116.806H84.2038L85.1158 120.286H85.3158L87.4438 116.806H88.9638L87.9798 122.406H87.0598L87.7478 118.486L87.9638 117.726H87.8838L85.8038 121.126H84.3638L83.4838 117.726ZM90.2195 121.206L93.5075 116.806H94.7475L93.7635 122.406H92.8435L93.4915 118.726L93.6995 118.006H93.6195L90.3235 122.406H89.0835L90.0675 116.806H90.9875L90.3395 120.486L90.1395 121.206H90.2195ZM96.9448 117.686H95.1048L95.2568 116.806H99.8568L99.7048 117.686H97.8648L97.0328 122.406H96.1128L96.9448 117.686ZM102.455 119.526H101.039L100.687 121.526H102.423C102.796 121.526 103.087 121.427 103.295 121.23C103.508 121.027 103.615 120.752 103.615 120.406C103.615 120.155 103.513 119.947 103.311 119.782C103.108 119.611 102.823 119.526 102.455 119.526ZM101.199 118.646H102.575C103.161 118.646 103.641 118.816 104.015 119.158C104.388 119.499 104.575 119.915 104.575 120.406C104.575 120.955 104.361 121.427 103.935 121.822C103.513 122.211 102.98 122.406 102.335 122.406H99.6148L100.599 116.806H101.519L101.199 118.646ZM108.454 116.646C109.185 116.646 109.782 116.835 110.246 117.214C110.715 117.592 111.022 118.096 111.166 118.726H110.206C110.201 118.72 110.195 118.71 110.19 118.694C110.185 118.678 110.179 118.662 110.174 118.646C110.137 118.55 110.083 118.451 110.014 118.35C109.95 118.243 109.849 118.123 109.71 117.99C109.577 117.851 109.393 117.739 109.158 117.654C108.929 117.568 108.667 117.526 108.374 117.526C107.745 117.526 107.219 117.744 106.798 118.182C106.382 118.614 106.174 119.168 106.174 119.846C106.174 120.39 106.35 120.832 106.702 121.174C107.054 121.515 107.518 121.686 108.094 121.686C108.702 121.686 109.214 121.472 109.63 121.046C109.806 120.864 109.95 120.651 110.062 120.406H111.054C110.905 120.811 110.689 121.171 110.406 121.486C109.793 122.206 108.995 122.566 108.014 122.566C107.177 122.566 106.499 122.315 105.982 121.814C105.47 121.307 105.214 120.651 105.214 119.846C105.214 118.966 105.529 118.214 106.158 117.59C106.793 116.96 107.558 116.646 108.454 116.646ZM113.97 119.526H115.434L115.762 117.686H114.01C113.636 117.686 113.348 117.776 113.146 117.958C112.948 118.134 112.85 118.371 112.85 118.67C112.85 118.91 112.948 119.112 113.146 119.278C113.348 119.443 113.623 119.526 113.97 119.526ZM111.29 122.406L113.034 120.23L112.954 120.198C112.74 120.139 112.508 119.982 112.258 119.726C112.012 119.47 111.89 119.136 111.89 118.726C111.89 118.192 112.095 117.739 112.506 117.366C112.916 116.992 113.444 116.806 114.09 116.806H116.834L115.85 122.406H114.93L115.282 120.406H113.922L112.37 122.406H111.29Z" fill="#636BFF"/>
</g>
<path d="M69.4713 44.1112L73.6417 36.8879L77.812 44.1112H69.4713Z" fill="#D9D9D9"/>
<path d="M69.4713 44.1112L73.6417 36.8879L77.812 44.1112H69.4713Z" fill="#636BFF"/>
<path d="M69.4713 44.1112L73.6417 36.8879L77.812 44.1112H69.4713Z" stroke="#080071" stroke-width="0.5"/>
<path d="M42.7293 65.0043L48.5388 54.9419L54.3483 65.0043H42.7293Z" fill="#D9D9D9"/>
<path d="M42.7293 65.0043L48.5388 54.9419L54.3483 65.0043H42.7293Z" fill="#636BFF"/>
<path d="M42.7293 65.0043L48.5388 54.9419L54.3483 65.0043H42.7293Z" stroke="#080071"/>
<path d="M112.595 72.3535L122.359 55.4419L132.123 72.3535H112.595Z" fill="#D9D9D9"/>
<path d="M112.595 72.3535L122.359 55.4419L132.123 72.3535H112.595Z" fill="#636BFF"/>
<path d="M112.595 72.3535L122.359 55.4419L132.123 72.3535H112.595Z" stroke="#080071" stroke-width="1.5"/>
<defs>
<filter id="filter0_f_1448_155" x="0.921875" y="0.923096" width="172.07" height="172.07" filterUnits="userSpaceOnUse" color-interpolation-filters="sRGB">
<feFlood flood-opacity="0" result="BackgroundImageFix"/>
<feBlend mode="normal" in="SourceGraphic" in2="BackgroundImageFix" result="shape"/>
<feGaussianBlur stdDeviation="15" result="effect1_foregroundBlur_1448_155"/>
</filter>
<filter id="filter1_d_1448_155" x="43" y="91" width="88" height="27" filterUnits="userSpaceOnUse" color-interpolation-filters="sRGB">
<feFlood flood-opacity="0" result="BackgroundImageFix"/>
<feColorMatrix in="SourceAlpha" type="matrix" values="0 0 0 0 0 0 0 0 0 0 0 0 0 0 0 0 0 0 127 0" result="hardAlpha"/>
<feOffset dy="1"/>
<feGaussianBlur stdDeviation="2"/>
<feComposite in2="hardAlpha" operator="out"/>
<feColorMatrix type="matrix" values="0 0 0 0 0 0 0 0 0 0 0 0 0 0 0 0 0 0 1 0"/>
<feBlend mode="normal" in2="BackgroundImageFix" result="effect1_dropShadow_1448_155"/>
<feBlend mode="normal" in="SourceGraphic" in2="effect1_dropShadow_1448_155" result="shape"/>
</filter>
<filter id="filter2_d_1448_155" x="49" y="109" width="78" height="24" filterUnits="userSpaceOnUse" color-interpolation-filters="sRGB">
<feFlood flood-opacity="0" result="BackgroundImageFix"/>
<feColorMatrix in="SourceAlpha" type="matrix" values="0 0 0 0 0 0 0 0 0 0 0 0 0 0 0 0 0 0 127 0" result="hardAlpha"/>
<feOffset dy="1"/>
<feGaussianBlur stdDeviation="2"/>
<feComposite in2="hardAlpha" operator="out"/>
<feColorMatrix type="matrix" values="0 0 0 0 0 0 0 0 0 0 0 0 0 0 0 0 0 0 1 0"/>
<feBlend mode="normal" in2="BackgroundImageFix" result="effect1_dropShadow_1448_155"/>
<feBlend mode="normal" in="SourceGraphic" in2="effect1_dropShadow_1448_155" result="shape"/>
</filter>
<linearGradient id="paint0_linear_1448_155" x1="132.717" y1="36.7832" x2="132.717" y2="97.082" gradientUnits="userSpaceOnUse">
<stop stop-color="white"/>
<stop offset="1" stop-color="#BBBBBB" stop-opacity="0"/>
</linearGradient>
<linearGradient id="paint1_linear_1448_155" x1="10.6594" y1="0" x2="10.6594" y2="60.2988" gradientUnits="userSpaceOnUse">
<stop stop-color="white"/>
<stop offset="1" stop-color="#BBBBBB" stop-opacity="0"/>
</linearGradient>
<linearGradient id="paint2_linear_1448_155" x1="47.4416" y1="51.8579" x2="47.4416" y2="112.157" gradientUnits="userSpaceOnUse">
<stop stop-color="white"/>
<stop offset="1" stop-color="#BBBBBB" stop-opacity="0"/>
</linearGradient>
<linearGradient id="paint3_linear_1448_155" x1="10.6594" y1="0" x2="10.6594" y2="60.2988" gradientUnits="userSpaceOnUse">
<stop stop-color="white"/>
<stop offset="1" stop-color="#BBBBBB" stop-opacity="0"/>
</linearGradient>
<linearGradient id="paint4_linear_1448_155" x1="86.9573" y1="26.6594" x2="86.9573" y2="86.9582" gradientUnits="userSpaceOnUse">
<stop stop-color="white"/>
<stop offset="1" stop-color="#BBBBBB" stop-opacity="0"/>
</linearGradient>
<linearGradient id="paint5_linear_1448_155" x1="10.6594" y1="0" x2="10.6594" y2="60.2988" gradientUnits="userSpaceOnUse">
<stop stop-color="white"/>
<stop offset="1" stop-color="#BBBBBB" stop-opacity="0"/>
</linearGradient>
<linearGradient id="paint6_linear_1448_155" x1="37.3179" y1="97.6177" x2="37.3179" y2="157.916" gradientUnits="userSpaceOnUse">
<stop stop-color="white"/>
<stop offset="1" stop-color="#BBBBBB" stop-opacity="0"/>
</linearGradient>
<linearGradient id="paint7_linear_1448_155" x1="10.6594" y1="0" x2="10.6594" y2="60.2988" gradientUnits="userSpaceOnUse">
<stop stop-color="white"/>
<stop offset="1" stop-color="#BBBBBB" stop-opacity="0"/>
</linearGradient>
<linearGradient id="paint8_linear_1448_155" x1="86.9573" y1="41.7034" x2="86.9573" y2="86.9582" gradientUnits="userSpaceOnUse">
<stop stop-color="white"/>
<stop offset="1" stop-color="#1C1C1C" stop-opacity="0"/>
</linearGradient>
<linearGradient id="paint9_linear_1448_155" x1="8" y1="0" x2="8" y2="45.2549" gradientUnits="userSpaceOnUse">
<stop stop-color="white"/>
<stop offset="1" stop-color="#1C1C1C" stop-opacity="0"/>
</linearGradient>
<linearGradient id="paint10_linear_1448_155" x1="49.7024" y1="94.9583" x2="49.7024" y2="140.213" gradientUnits="userSpaceOnUse">
<stop stop-color="white"/>
<stop offset="1" stop-color="#1C1C1C" stop-opacity="0"/>
</linearGradient>
<linearGradient id="paint11_linear_1448_155" x1="8" y1="0" x2="8" y2="45.2549" gradientUnits="userSpaceOnUse">
<stop stop-color="white"/>
<stop offset="1" stop-color="#1C1C1C" stop-opacity="0"/>
</linearGradient>
<linearGradient id="paint12_linear_1448_155" x1="121.3" y1="49.3013" x2="121.3" y2="94.5561" gradientUnits="userSpaceOnUse">
<stop stop-color="white"/>
<stop offset="1" stop-color="#1C1C1C" stop-opacity="0"/>
</linearGradient>
<linearGradient id="paint13_linear_1448_155" x1="8" y1="0" x2="8" y2="45.2549" gradientUnits="userSpaceOnUse">
<stop stop-color="white"/>
<stop offset="1" stop-color="#1C1C1C" stop-opacity="0"/>
</linearGradient>
<linearGradient id="paint14_linear_1448_155" x1="57.3003" y1="60.615" x2="57.3003" y2="105.87" gradientUnits="userSpaceOnUse">
<stop stop-color="white"/>
<stop offset="1" stop-color="#1C1C1C" stop-opacity="0"/>
</linearGradient>
<linearGradient id="paint15_linear_1448_155" x1="8" y1="0" x2="8" y2="45.2549" gradientUnits="userSpaceOnUse">
<stop stop-color="white"/>
<stop offset="1" stop-color="#1C1C1C" stop-opacity="0"/>
</linearGradient>
<clipPath id="clip0_1448_155">
<rect x="41.7024" y="86.9583" width="64" height="64" rx="10" transform="rotate(-45 41.7024 86.9583)" fill="white"/>
</clipPath>
</defs>
</svg>
