<svg width="173" height="173" viewBox="0 0 173 173" fill="none" xmlns="http://www.w3.org/2000/svg">
<rect width="141.916" height="141.916" transform="translate(16 16)" fill="white"/>
<rect x="122.059" y="36.7832" width="21.3188" height="60.2988" transform="rotate(45 122.059 36.7832)" fill="url(#paint0_linear_1448_60)"/>
<rect width="21.3188" height="60.2988" transform="matrix(0.707107 0.707107 0.707107 -0.707107 36.7832 122.058)" fill="url(#paint1_linear_1448_60)"/>
<rect x="36.7832" y="51.8579" width="21.3188" height="60.2988" transform="rotate(-45 36.7832 51.8579)" fill="url(#paint2_linear_1448_60)"/>
<rect width="21.3188" height="60.2988" transform="matrix(0.707107 -0.707107 -0.707107 -0.707107 122.058 137.133)" fill="url(#paint3_linear_1448_60)"/>
<rect x="76.2988" y="26.6594" width="21.3188" height="60.2988" fill="url(#paint4_linear_1448_60)"/>
<rect width="21.3188" height="60.2988" transform="matrix(1 0 0 -1 76.2987 147.257)" fill="url(#paint5_linear_1448_60)"/>
<rect x="26.6593" y="97.6177" width="21.3188" height="60.2988" transform="rotate(-90 26.6593 97.6177)" fill="url(#paint6_linear_1448_60)"/>
<rect width="21.3188" height="60.2988" transform="matrix(0 -1 -1 0 147.257 97.6177)" fill="url(#paint7_linear_1448_60)"/>
<g opacity="0.5" filter="url(#filter0_f_1448_60)">
<circle cx="86.9581" cy="86.9583" r="56.0352" fill="#78FF2F"/>
</g>
<g clip-path="url(#clip0_1448_60)">
<rect x="41.7034" y="86.9583" width="64" height="64" rx="10" transform="rotate(-45 41.7034 86.9583)" fill="#59FF00"/>
<rect x="41.7034" y="86.9583" width="64" height="64" rx="10" transform="rotate(-45 41.7034 86.9583)" fill="#003202"/>
<rect x="78.9583" y="41.7034" width="16" height="45.2549" fill="url(#paint8_linear_1448_60)" fill-opacity="0.1"/>
<rect width="16" height="45.2549" transform="matrix(1 0 0 -1 78.9583 132.213)" fill="url(#paint9_linear_1448_60)" fill-opacity="0.1"/>
<rect x="41.7034" y="94.9583" width="16" height="45.2549" transform="rotate(-90 41.7034 94.9583)" fill="url(#paint10_linear_1448_60)" fill-opacity="0.1"/>
<rect width="16" height="45.2549" transform="matrix(0 -1 -1 0 132.213 94.9583)" fill="url(#paint11_linear_1448_60)" fill-opacity="0.1"/>
<rect x="113.302" y="49.3013" width="16" height="45.2549" transform="rotate(45 113.302 49.3013)" fill="url(#paint12_linear_1448_60)" fill-opacity="0.04"/>
<rect width="16" height="45.2549" transform="matrix(0.707107 0.707107 0.707107 -0.707107 49.3014 113.301)" fill="url(#paint13_linear_1448_60)" fill-opacity="0.04"/>
<rect x="49.3014" y="60.615" width="16" height="45.2549" transform="rotate(-45 49.3014 60.615)" fill="url(#paint14_linear_1448_60)" fill-opacity="0.04"/>
<rect width="16" height="45.2549" transform="matrix(0.707107 -0.707107 -0.707107 -0.707107 113.301 124.615)" fill="url(#paint15_linear_1448_60)" fill-opacity="0.04"/>
<path d="M72.4515 93.2949L83.0582 82.6883M96.4149 77.9716L93.2399 87.4983C93.189 87.6506 93.1021 87.7885 92.9866 87.9002C92.8712 88.0119 92.7305 88.0941 92.5765 88.1399L73.1132 93.9266C72.9378 93.9787 72.7516 93.9817 72.5746 93.9352C72.3977 93.8888 72.2369 93.7947 72.1097 93.6632C71.9826 93.5318 71.8939 93.3679 71.8533 93.1896C71.8128 93.0112 71.822 92.8251 71.8799 92.6516L78.1999 73.6949C78.2452 73.5588 78.3192 73.4341 78.417 73.3291C78.5148 73.2241 78.634 73.1414 78.7665 73.0866L87.7449 69.3899C87.9274 69.3145 88.1282 69.2949 88.3218 69.3335C88.5155 69.372 88.6935 69.4671 88.8332 69.6066L96.1732 76.9483C96.3045 77.0796 96.3967 77.2449 96.4394 77.4256C96.4821 77.6064 96.4736 77.7954 96.4149 77.9716Z" stroke="#59FF00" stroke-width="2" stroke-linecap="round" stroke-linejoin="round"/>
<path d="M97.6299 64.2615L101.57 68.2015C101.866 68.4848 102.103 68.8243 102.266 69.2003C102.429 69.5762 102.515 69.9809 102.519 70.3906C102.524 70.8003 102.447 71.2069 102.292 71.5863C102.137 71.9657 101.908 72.3104 101.619 72.6002C101.329 72.8899 100.984 73.1188 100.605 73.2736C100.225 73.4283 99.8187 73.5056 99.409 73.5011C98.9993 73.4966 98.5946 73.4102 98.2187 73.2472C97.8427 73.0841 97.5032 72.8476 97.2199 72.5515L93.2782 68.6115C92.7223 68.0304 92.416 67.2548 92.4249 66.4506C92.4338 65.6465 92.7572 64.8778 93.3258 64.3091C93.8945 63.7404 94.6632 63.417 95.4673 63.4081C96.2715 63.3993 97.0488 63.7056 97.6299 64.2615Z" stroke="#59FF00" stroke-width="2" stroke-linecap="round" stroke-linejoin="round"/>
<path d="M86.5931 79.1514C86.3625 78.9126 86.0867 78.7222 85.7817 78.5912C85.4766 78.4601 85.1486 78.3912 84.8166 78.3883C84.4847 78.3854 84.1555 78.4486 83.8483 78.5744C83.541 78.7001 83.2619 78.8857 83.0272 79.1204C82.7924 79.3551 82.6068 79.6343 82.4811 79.9415C82.3554 80.2488 82.2921 80.578 82.295 80.9099C82.2979 81.2419 82.3669 81.5699 82.4979 81.8749C82.6289 82.1799 82.8194 82.4558 83.0581 82.6864C83.5296 83.1418 84.1612 83.3938 84.8166 83.3881C85.4721 83.3824 86.0992 83.1195 86.5627 82.656C87.0262 82.1924 87.2891 81.5654 87.2948 80.9099C87.3005 80.2544 87.0485 79.6229 86.5931 79.1514Z" stroke="#59FF00" stroke-width="2" stroke-linecap="round" stroke-linejoin="round"/>
</g>
<rect x="40.2892" y="86.9583" width="66" height="66" rx="11" transform="rotate(-45 40.2892 86.9583)" stroke="#59FF00" stroke-width="2"/>
<g filter="url(#filter1_d_1448_60)">
<rect x="35.4581" y="94.4956" width="103" height="19" rx="9.5" fill="#202020" shape-rendering="crispEdges"/>
<rect x="35.9581" y="94.9956" width="102" height="18" rx="9" stroke="#2E2E2E" shape-rendering="crispEdges"/>
<path d="M41.8664 108.475L43.3424 100.075H44.7224L44.1104 103.555H48.2504L48.8624 100.075H50.2424L48.7664 108.475H47.3864L48.0224 104.875H43.8824L43.2464 108.475H41.8664ZM56.9371 100.075L57.6811 108.475H56.2651L56.0731 106.315H52.2091L51.2851 108.475H49.8811L53.5171 100.075H56.9371ZM54.3331 101.395L52.7971 104.995H55.9651L55.6531 101.395H54.3331ZM59.2129 100.075H60.5929L60.1249 102.763C60.0929 102.899 60.0769 103.043 60.0769 103.195C60.0769 103.587 60.2009 103.895 60.4489 104.119C60.7769 104.423 61.2729 104.575 61.9369 104.575C62.4489 104.575 62.8809 104.495 63.2329 104.335C63.3689 104.279 63.5169 104.199 63.6769 104.095L64.3849 100.075H65.7649L64.2769 108.475H62.8969L63.4369 105.415C63.2849 105.503 63.1129 105.575 62.9209 105.631C62.4969 105.767 62.0089 105.835 61.4569 105.835C60.6729 105.835 60.0529 105.675 59.5969 105.355C59.1489 105.027 58.8689 104.563 58.7569 103.963C58.7169 103.763 58.6969 103.567 58.6969 103.375C58.6969 103.143 58.7209 102.899 58.7689 102.643L59.2129 100.075ZM67.7111 106.675L72.6431 100.075H74.5031L73.0271 108.475H71.6471L72.6191 102.955L72.9311 101.875H72.8111L67.8671 108.475H66.0071L67.4831 100.075H68.8631L67.8911 105.595L67.5911 106.675H67.7111ZM74.6789 108.475L76.1549 100.075H77.5349L76.9229 103.555H81.0629L81.6749 100.075H83.0549L81.5789 108.475H80.1989L80.8349 104.875H76.6949L76.0589 108.475H74.6789ZM89.7496 100.075L90.4936 108.475H89.0776L88.8856 106.315H85.0216L84.0976 108.475H82.6936L86.3296 100.075H89.7496ZM87.1456 101.395L85.6096 104.995H88.7776L88.4656 101.395H87.1456ZM98.5899 108.715C97.4459 108.715 96.4939 108.359 95.7339 107.647C94.9819 106.935 94.5739 106.011 94.5099 104.875H93.4059L92.7699 108.475H91.3899L92.8659 100.075H94.2459L93.6339 103.555H94.6299C94.8699 102.483 95.4219 101.595 96.2859 100.891C97.1579 100.187 98.1459 99.8346 99.2499 99.8346C100.45 99.8346 101.43 100.215 102.19 100.975C102.95 101.735 103.33 102.715 103.33 103.915C103.33 105.235 102.862 106.367 101.926 107.311C100.998 108.247 99.8859 108.715 98.5899 108.715ZM99.1299 101.155C98.2419 101.155 97.4899 101.483 96.8739 102.139C96.2579 102.795 95.9499 103.627 95.9499 104.635C95.9499 105.443 96.2059 106.107 96.7179 106.627C97.2379 107.139 97.9019 107.395 98.7099 107.395C99.5979 107.395 100.35 107.067 100.966 106.411C101.582 105.755 101.89 104.923 101.89 103.915C101.89 103.107 101.63 102.447 101.11 101.935C100.598 101.415 99.9379 101.155 99.1299 101.155ZM113.95 108.475H103.87L105.346 100.075H106.726L105.478 107.155H108.538L109.786 100.075H111.166L109.918 107.155H112.978L114.226 100.075H115.606L114.358 107.155H115.498L114.994 110.035H113.674L113.95 108.475ZM118.09 106.675L123.022 100.075H124.882L123.406 108.475H122.026L122.998 102.955L123.31 101.875H123.19L118.246 108.475H116.386L117.862 100.075H119.242L118.27 105.595L117.97 106.675H118.09ZM126.762 106.675L131.694 100.075H133.554L132.078 108.475H130.698L131.67 102.955L131.982 101.875H131.862L126.918 108.475H125.058L126.534 100.075H127.914L126.942 105.595L126.642 106.675H126.762ZM130.218 99.1746C129.602 99.1746 129.118 99.0306 128.766 98.7426C128.414 98.4546 128.238 98.0786 128.238 97.6146V97.4826C128.238 97.4586 128.242 97.4426 128.25 97.4346H129.378V97.5426C129.378 97.7426 129.45 97.9066 129.594 98.0346C129.746 98.1546 129.954 98.2146 130.218 98.2146C130.698 98.2146 130.982 97.9546 131.07 97.4346H132.222C132.15 97.9626 131.938 98.3866 131.586 98.7066C131.234 99.0186 130.778 99.1746 130.218 99.1746Z" fill="white"/>
</g>
<circle cx="49.3014" cy="63.4546" r="4.5" fill="#59FF00" stroke="#277100"/>
<circle cx="68.6394" cy="42.4233" r="2.75" fill="#59FF00" stroke="#277100" stroke-width="0.5"/>
<circle cx="121.958" cy="69.3142" r="6.25" fill="#59FF00" stroke="#277100" stroke-width="1.5"/>
<g filter="url(#filter2_d_1448_60)">
<rect x="51.9583" y="112" width="70" height="18" rx="9" fill="#003202" shape-rendering="crispEdges"/>
<rect x="52.4583" y="112.5" width="69" height="17" rx="8.5" stroke="#59FF00" shape-rendering="crispEdges"/>
<path d="M65.9011 117.203L66.3611 123.103H67.1611L66.7411 125.503H65.6411L65.8711 124.203H60.6211L60.3911 125.503H59.2911L59.7111 123.103H60.5111L63.0511 117.203H65.9011ZM63.7411 118.303L61.6911 123.103H65.1911L64.8411 118.303H63.7411ZM69.0295 122.703L73.1395 117.203H74.6895L73.4595 124.203H72.3095L73.1195 119.603L73.3795 118.703H73.2795L69.1595 124.203H67.6095L68.8395 117.203H69.9895L69.1795 121.803L68.9295 122.703H69.0295ZM74.836 122.153H76.086L76.136 122.333C76.196 122.56 76.3694 122.78 76.656 122.993C76.9494 123.2 77.3627 123.303 77.896 123.303C78.336 123.303 78.6794 123.196 78.926 122.983C79.1727 122.77 79.296 122.493 79.296 122.153C79.296 121.906 79.1594 121.686 78.886 121.493C78.6194 121.3 78.2394 121.203 77.746 121.203H77.046L77.236 120.103H78.356C78.7627 120.103 79.0794 120.006 79.306 119.813C79.5327 119.62 79.646 119.366 79.646 119.053C79.646 118.786 79.526 118.563 79.286 118.383C79.046 118.196 78.6994 118.103 78.246 118.103C77.786 118.103 77.376 118.27 77.016 118.603C76.8494 118.77 76.726 118.936 76.646 119.103H75.446C75.586 118.71 75.7894 118.36 76.056 118.053C76.636 117.353 77.4027 117.003 78.356 117.003C79.1427 117.003 79.7627 117.19 80.216 117.563C80.6694 117.936 80.896 118.4 80.896 118.953C80.896 119.526 80.6694 119.986 80.216 120.333C80.016 120.493 79.7894 120.613 79.536 120.693L79.526 120.743C79.6994 120.823 79.8594 120.93 80.006 121.063C80.3327 121.376 80.496 121.756 80.496 122.203C80.496 122.823 80.2527 123.346 79.766 123.773C79.2794 124.193 78.6227 124.403 77.796 124.403C77.3627 124.403 76.9694 124.346 76.616 124.233C76.2627 124.12 75.9827 123.983 75.776 123.823C75.576 123.663 75.4027 123.48 75.256 123.273C75.116 123.066 75.0194 122.886 74.966 122.733C74.9127 122.58 74.8794 122.44 74.866 122.313L74.836 122.153ZM86.6723 117.203L87.2923 124.203H86.1123L85.9523 122.403H82.7323L81.9623 124.203H80.7923L83.8223 117.203H86.6723ZM84.5023 118.303L83.2223 121.303H85.8623L85.6023 118.303H84.5023ZM89.4592 122.703L93.5692 117.203H95.1192L93.8892 124.203H92.7392L93.5492 119.603L93.8092 118.703H93.7092L89.5892 124.203H88.0392L89.2692 117.203H90.4192L89.6092 121.803L89.3592 122.703H89.4592ZM92.3392 116.453C91.8258 116.453 91.4225 116.333 91.1292 116.093C90.8358 115.853 90.6892 115.54 90.6892 115.153V115.043C90.6892 115.023 90.6925 115.01 90.6992 115.003H91.6392V115.093C91.6392 115.26 91.6992 115.396 91.8192 115.503C91.9458 115.603 92.1192 115.653 92.3392 115.653C92.7392 115.653 92.9758 115.436 93.0492 115.003H94.0092C93.9492 115.443 93.7725 115.796 93.4792 116.063C93.1858 116.323 92.8058 116.453 92.3392 116.453ZM95.2657 124.203L96.4957 117.203H97.6457L97.1357 120.103H100.586L101.096 117.203H102.246L101.016 124.203H99.8657L100.396 121.203H96.9457L96.4157 124.203H95.2657ZM103.735 123.103H107.635L107.445 124.203H102.395L103.625 117.203H108.675L108.485 118.303H104.585L104.265 120.103H107.415L107.225 121.203H104.075L103.735 123.103ZM112.479 118.303H110.669L110.229 120.803H112.379C112.852 120.803 113.219 120.68 113.479 120.433C113.745 120.18 113.879 119.84 113.879 119.413C113.879 119.093 113.755 118.83 113.509 118.623C113.262 118.41 112.919 118.303 112.479 118.303ZM109.709 117.203H112.579C113.305 117.203 113.902 117.413 114.369 117.833C114.842 118.253 115.079 118.76 115.079 119.353C115.079 120.066 114.815 120.67 114.289 121.163C113.762 121.656 113.092 121.903 112.279 121.903H110.039L109.629 124.203H108.479L109.709 117.203Z" fill="#59FF00"/>
</g>
<defs>
<filter id="filter0_f_1448_60" x="0.922974" y="0.923096" width="172.07" height="172.07" filterUnits="userSpaceOnUse" color-interpolation-filters="sRGB">
<feFlood flood-opacity="0" result="BackgroundImageFix"/>
<feBlend mode="normal" in="SourceGraphic" in2="BackgroundImageFix" result="shape"/>
<feGaussianBlur stdDeviation="15" result="effect1_foregroundBlur_1448_60"/>
</filter>
<filter id="filter1_d_1448_60" x="31.4581" y="91.4956" width="111" height="27" filterUnits="userSpaceOnUse" color-interpolation-filters="sRGB">
<feFlood flood-opacity="0" result="BackgroundImageFix"/>
<feColorMatrix in="SourceAlpha" type="matrix" values="0 0 0 0 0 0 0 0 0 0 0 0 0 0 0 0 0 0 127 0" result="hardAlpha"/>
<feOffset dy="1"/>
<feGaussianBlur stdDeviation="2"/>
<feComposite in2="hardAlpha" operator="out"/>
<feColorMatrix type="matrix" values="0 0 0 0 0 0 0 0 0 0 0 0 0 0 0 0 0 0 1 0"/>
<feBlend mode="normal" in2="BackgroundImageFix" result="effect1_dropShadow_1448_60"/>
<feBlend mode="normal" in="SourceGraphic" in2="effect1_dropShadow_1448_60" result="shape"/>
</filter>
<filter id="filter2_d_1448_60" x="47.9583" y="109" width="78" height="26" filterUnits="userSpaceOnUse" color-interpolation-filters="sRGB">
<feFlood flood-opacity="0" result="BackgroundImageFix"/>
<feColorMatrix in="SourceAlpha" type="matrix" values="0 0 0 0 0 0 0 0 0 0 0 0 0 0 0 0 0 0 127 0" result="hardAlpha"/>
<feOffset dy="1"/>
<feGaussianBlur stdDeviation="2"/>
<feComposite in2="hardAlpha" operator="out"/>
<feColorMatrix type="matrix" values="0 0 0 0 0 0 0 0 0 0 0 0 0 0 0 0 0 0 1 0"/>
<feBlend mode="normal" in2="BackgroundImageFix" result="effect1_dropShadow_1448_60"/>
<feBlend mode="normal" in="SourceGraphic" in2="effect1_dropShadow_1448_60" result="shape"/>
</filter>
<linearGradient id="paint0_linear_1448_60" x1="132.718" y1="36.7832" x2="132.718" y2="97.082" gradientUnits="userSpaceOnUse">
<stop stop-color="white"/>
<stop offset="1" stop-color="#BBBBBB" stop-opacity="0"/>
</linearGradient>
<linearGradient id="paint1_linear_1448_60" x1="10.6594" y1="0" x2="10.6594" y2="60.2988" gradientUnits="userSpaceOnUse">
<stop stop-color="white"/>
<stop offset="1" stop-color="#BBBBBB" stop-opacity="0"/>
</linearGradient>
<linearGradient id="paint2_linear_1448_60" x1="47.4426" y1="51.8579" x2="47.4426" y2="112.157" gradientUnits="userSpaceOnUse">
<stop stop-color="white"/>
<stop offset="1" stop-color="#BBBBBB" stop-opacity="0"/>
</linearGradient>
<linearGradient id="paint3_linear_1448_60" x1="10.6594" y1="0" x2="10.6594" y2="60.2988" gradientUnits="userSpaceOnUse">
<stop stop-color="white"/>
<stop offset="1" stop-color="#BBBBBB" stop-opacity="0"/>
</linearGradient>
<linearGradient id="paint4_linear_1448_60" x1="86.9582" y1="26.6594" x2="86.9582" y2="86.9582" gradientUnits="userSpaceOnUse">
<stop stop-color="white"/>
<stop offset="1" stop-color="#BBBBBB" stop-opacity="0"/>
</linearGradient>
<linearGradient id="paint5_linear_1448_60" x1="10.6594" y1="0" x2="10.6594" y2="60.2988" gradientUnits="userSpaceOnUse">
<stop stop-color="white"/>
<stop offset="1" stop-color="#BBBBBB" stop-opacity="0"/>
</linearGradient>
<linearGradient id="paint6_linear_1448_60" x1="37.3187" y1="97.6177" x2="37.3187" y2="157.916" gradientUnits="userSpaceOnUse">
<stop stop-color="white"/>
<stop offset="1" stop-color="#BBBBBB" stop-opacity="0"/>
</linearGradient>
<linearGradient id="paint7_linear_1448_60" x1="10.6594" y1="0" x2="10.6594" y2="60.2988" gradientUnits="userSpaceOnUse">
<stop stop-color="white"/>
<stop offset="1" stop-color="#BBBBBB" stop-opacity="0"/>
</linearGradient>
<linearGradient id="paint8_linear_1448_60" x1="86.9583" y1="41.7034" x2="86.9583" y2="86.9582" gradientUnits="userSpaceOnUse">
<stop stop-color="white"/>
<stop offset="1" stop-color="#1C1C1C" stop-opacity="0"/>
</linearGradient>
<linearGradient id="paint9_linear_1448_60" x1="8" y1="0" x2="8" y2="45.2549" gradientUnits="userSpaceOnUse">
<stop stop-color="white"/>
<stop offset="1" stop-color="#1C1C1C" stop-opacity="0"/>
</linearGradient>
<linearGradient id="paint10_linear_1448_60" x1="49.7034" y1="94.9583" x2="49.7034" y2="140.213" gradientUnits="userSpaceOnUse">
<stop stop-color="white"/>
<stop offset="1" stop-color="#1C1C1C" stop-opacity="0"/>
</linearGradient>
<linearGradient id="paint11_linear_1448_60" x1="8" y1="0" x2="8" y2="45.2549" gradientUnits="userSpaceOnUse">
<stop stop-color="white"/>
<stop offset="1" stop-color="#1C1C1C" stop-opacity="0"/>
</linearGradient>
<linearGradient id="paint12_linear_1448_60" x1="121.302" y1="49.3013" x2="121.302" y2="94.5561" gradientUnits="userSpaceOnUse">
<stop stop-color="white"/>
<stop offset="1" stop-color="#1C1C1C" stop-opacity="0"/>
</linearGradient>
<linearGradient id="paint13_linear_1448_60" x1="8" y1="0" x2="8" y2="45.2549" gradientUnits="userSpaceOnUse">
<stop stop-color="white"/>
<stop offset="1" stop-color="#1C1C1C" stop-opacity="0"/>
</linearGradient>
<linearGradient id="paint14_linear_1448_60" x1="57.3014" y1="60.615" x2="57.3014" y2="105.87" gradientUnits="userSpaceOnUse">
<stop stop-color="white"/>
<stop offset="1" stop-color="#1C1C1C" stop-opacity="0"/>
</linearGradient>
<linearGradient id="paint15_linear_1448_60" x1="8" y1="0" x2="8" y2="45.2549" gradientUnits="userSpaceOnUse">
<stop stop-color="white"/>
<stop offset="1" stop-color="#1C1C1C" stop-opacity="0"/>
</linearGradient>
<clipPath id="clip0_1448_60">
<rect x="41.7034" y="86.9583" width="64" height="64" rx="10" transform="rotate(-45 41.7034 86.9583)" fill="white"/>
</clipPath>
</defs>
</svg>
