<svg width="173" height="173" viewBox="0 0 173 173" fill="none" xmlns="http://www.w3.org/2000/svg">
<rect width="141.916" height="141.916" transform="translate(15.9995 16)" fill="white"/>
<rect x="122.058" y="36.7832" width="21.3188" height="60.2988" transform="rotate(45 122.058 36.7832)" fill="url(#paint0_linear_1448_317)"/>
<rect width="21.3188" height="60.2988" transform="matrix(0.707107 0.707107 0.707107 -0.707107 36.7827 122.058)" fill="url(#paint1_linear_1448_317)"/>
<rect x="36.7827" y="51.8579" width="21.3188" height="60.2988" transform="rotate(-45 36.7827 51.8579)" fill="url(#paint2_linear_1448_317)"/>
<rect width="21.3188" height="60.2988" transform="matrix(0.707107 -0.707107 -0.707107 -0.707107 122.058 137.133)" fill="url(#paint3_linear_1448_317)"/>
<rect x="76.2983" y="26.6594" width="21.3188" height="60.2988" fill="url(#paint4_linear_1448_317)"/>
<rect width="21.3188" height="60.2988" transform="matrix(1 0 0 -1 76.2982 147.257)" fill="url(#paint5_linear_1448_317)"/>
<rect x="26.6588" y="97.6177" width="21.3188" height="60.2988" transform="rotate(-90 26.6588 97.6177)" fill="url(#paint6_linear_1448_317)"/>
<rect width="21.3188" height="60.2988" transform="matrix(0 -1 -1 0 147.256 97.6177)" fill="url(#paint7_linear_1448_317)"/>
<g opacity="0.5" filter="url(#filter0_f_1448_317)">
<circle cx="86.9576" cy="86.9583" r="56.0352" fill="#FEAD16"/>
</g>
<g filter="url(#filter1_d_1448_317)">
<mask id="path-10-inside-1_1448_317" fill="white">
<path d="M61.1316 37.8079C57.4222 39.0039 54.5199 40.3173 50.9437 42.9415C50.4801 43.3841 50.0255 43.8363 49.5804 44.2976C49.6312 44.4174 49.7096 44.5654 49.8254 44.7739C50.0404 45.1617 50.4111 45.6256 50.8775 46.0843C50.1628 47.2315 49.4919 48.4054 48.8664 49.6035C48.0907 48.96 47.3947 48.2438 46.8354 47.44C45.2135 49.4618 43.7661 51.6175 42.5087 53.884C42.5924 54.2303 42.8384 54.608 43.309 55.1139C43.8712 55.7179 44.7495 56.3418 45.7701 56.874C45.3416 58.1689 44.9741 59.4575 44.6723 60.7438C43.0973 60.0282 41.6567 59.0993 40.5243 57.9191C39.2477 60.8883 38.2962 63.9869 37.6863 67.1609C37.9689 67.6761 38.4726 68.148 39.2342 68.6495C40.308 69.3566 41.8508 69.9358 43.5278 70.2705C43.5183 71.6332 43.5808 72.9848 43.6997 74.3189C41.2849 73.9648 38.9567 73.208 37.0578 71.9573C37.0472 71.9501 37.0354 71.9446 37.0248 71.9374C36.7536 75.1757 36.8312 78.4337 37.2562 81.6554C37.7452 82.3921 38.5636 82.9165 39.7832 83.3359C41.351 83.8748 43.4819 84.0438 45.6514 83.8253C46.0748 85.1213 46.5564 86.3932 47.093 87.6358C44.1356 88.08 41.1154 87.9792 38.4997 87.0801C38.4283 87.0556 38.3589 87.0268 38.288 87.0007C39.1253 90.2565 40.3212 93.4093 41.8538 96.4013C42.6059 96.9949 43.6214 97.2938 44.9699 97.3869C46.9387 97.5233 49.446 97.0207 51.8369 96.0441C52.6208 97.1544 53.4507 98.2314 54.3243 99.2725C51.2399 100.694 47.8972 101.532 44.7847 101.337C46.8919 104.431 49.3689 107.257 52.161 109.751C53.0628 110.058 54.1298 110.062 55.4156 109.811C57.4479 109.414 59.8305 108.243 61.9845 106.635C61.9862 106.636 61.99 106.634 61.9913 106.635C63.0795 107.476 64.2029 108.271 65.3585 109.017C62.8232 111.115 59.9338 112.763 56.9902 113.509C59.4772 115.192 62.1253 116.623 64.8955 117.782C65.9406 117.872 67.0739 117.579 68.3555 116.955C69.9796 116.165 71.696 114.785 73.2308 113.086C76.8372 114.522 80.5834 115.461 84.3581 115.818L84.7349 111.875C81.7145 111.589 78.6839 110.865 75.7248 109.771C77.1819 107.419 78.1826 104.865 78.4641 102.692C78.7135 100.763 78.4817 99.2721 77.6635 98.1541C75.953 97.8196 74.2996 97.32 72.7151 96.6722C72.6787 98.0419 72.354 99.4215 71.8218 100.714C71.029 102.641 69.8064 104.482 68.3224 106.159C67.1847 105.459 66.0787 104.709 65.0079 103.91C66.4093 102.389 67.532 100.741 68.1634 99.206C68.9692 97.2487 69.0469 95.6965 68.2958 94.3773C66.6555 93.3279 65.1197 92.1043 63.6982 90.7319C63.3228 91.6422 62.8118 92.5038 62.2095 93.2921C61.0503 94.8089 59.5481 96.1521 57.8564 97.2942C56.9843 96.295 56.1519 95.2613 55.369 94.1848C56.8831 93.1911 58.1837 92.0467 59.0673 90.8904C60.1339 89.4945 60.5958 88.2633 60.4366 87.06C59.371 85.6539 58.4155 84.1676 57.5787 82.6144C57.0944 83.1842 56.551 83.701 55.9577 84.1562C54.5271 85.2517 52.8251 86.0943 51.0028 86.7029C50.4535 85.4983 49.9534 84.2688 49.5209 83.0116C51.0932 82.5024 52.5122 81.8085 53.5495 81.0138C54.7553 80.0904 55.4128 79.2049 55.5674 78.2088C54.9184 76.4913 54.3944 74.729 53.9996 72.9359C53.6042 73.1636 53.193 73.3626 52.7692 73.5314C51.1921 74.1553 49.435 74.4701 47.6292 74.537C47.4864 73.2208 47.4134 71.898 47.4105 70.574C48.8833 70.5184 50.2608 70.2698 51.3142 69.8532C52.288 69.4679 52.922 69.0488 53.2921 68.5301C53.0712 66.434 53.0136 64.3239 53.12 62.2189C52.9824 62.2409 52.8469 62.257 52.7097 62.2718C51.3074 62.4253 49.84 62.3035 48.3898 61.9875C48.6799 60.7215 49.0398 59.445 49.4682 58.1636C50.4992 58.3611 51.4874 58.4225 52.2795 58.3359C52.8329 58.2754 53.2389 58.1759 53.5497 58.0383C53.8405 56.1738 54.2628 54.3323 54.8135 52.5275C53.9282 52.3716 53.0598 52.0846 52.2203 51.7071C52.8336 50.5239 53.4935 49.3654 54.1983 48.2343C54.7094 48.4381 55.1967 48.5867 55.6139 48.6513C55.8483 48.6873 56.0422 48.7074 56.2029 48.7106C56.6148 47.7283 57.0543 46.7693 57.5328 45.8394C58.7813 43.3409 60.1609 40.7053 61.1316 37.8079ZM112.865 37.8079C113.835 40.7051 115.214 43.3405 116.463 45.8392C116.946 46.7783 117.392 47.7361 117.799 48.7102C117.958 48.7068 118.151 48.6862 118.381 48.6509C118.801 48.5861 119.291 48.4392 119.804 48.2338C120.509 49.365 121.169 50.5236 121.782 51.7069C120.94 52.085 120.068 52.3716 119.182 52.5275C119.725 54.3036 120.15 56.1474 120.446 58.0379C120.758 58.1772 121.166 58.275 121.723 58.3359C122.515 58.4227 123.503 58.3613 124.534 58.1638C124.953 59.4226 125.311 60.7009 125.606 61.9945C124.159 62.3093 122.693 62.4255 121.293 62.2724C121.153 62.2581 121.015 62.2405 120.876 62.2195C120.985 64.3243 120.929 66.4343 120.711 68.5306C121.081 69.0492 121.715 69.4684 122.689 69.8536C123.74 70.2696 125.115 70.5184 126.585 70.5747C126.583 71.8986 126.51 73.2214 126.367 74.5376C124.564 74.4699 122.809 74.1549 121.234 73.5321C120.81 73.3626 120.399 73.1635 120.003 72.9363C119.608 74.7271 119.084 76.487 118.435 78.2023C118.587 79.2015 119.239 80.0889 120.446 81.014C121.485 81.8085 122.903 82.5022 124.476 83.0116C124.043 84.269 123.543 85.4983 122.994 86.7031C121.174 86.0945 119.475 85.2504 118.045 84.1564C117.45 83.7015 116.904 83.1847 116.418 82.6146C115.569 84.1858 114.614 85.6724 113.56 87.0602C113.399 88.2631 113.863 89.4951 114.93 90.8909C115.812 92.0461 117.113 93.192 118.627 94.1855C117.845 95.2619 117.012 96.2952 116.14 97.2946C114.448 96.1523 112.946 94.8093 111.787 93.2923C111.186 92.5059 110.679 91.6458 110.305 90.7384C108.885 92.1098 107.347 93.3287 105.707 94.377C104.956 95.6965 105.034 97.2487 105.84 99.2062C106.472 100.741 107.594 102.389 108.996 103.91C107.923 104.709 106.815 105.459 105.675 106.159C104.192 104.482 102.975 102.641 102.182 100.714C101.65 99.4217 101.325 98.0421 101.288 96.6727C99.6888 97.3267 98.0294 97.823 96.3335 98.1545C95.5136 99.2723 95.2835 100.763 95.5333 102.693C95.8142 104.865 96.8204 107.42 98.2784 109.771C95.3201 110.865 92.2889 111.589 89.2682 111.875L89.6387 115.818C93.4153 115.461 97.1636 114.523 100.773 113.086C102.307 114.785 104.024 116.165 105.648 116.955C106.93 117.579 108.063 117.872 109.108 117.782C111.878 116.623 114.526 115.192 117.013 113.509C114.071 112.764 111.178 111.118 108.645 109.023C109.797 108.281 110.918 107.479 112.012 106.635C114.167 108.245 116.554 109.414 118.588 109.81C119.87 110.061 120.935 110.061 121.836 109.758C124.631 107.261 127.11 104.433 129.219 101.336C126.106 101.532 122.757 100.694 119.672 99.2723C120.545 98.2322 121.38 97.1574 122.166 96.0439C124.557 97.0198 127.064 97.5228 129.034 97.3865C130.382 97.2934 131.397 96.9944 132.149 96.4008C133.682 93.4088 134.878 90.2561 135.715 87.0003C135.644 87.0264 135.575 87.0554 135.503 87.0797C132.888 87.9788 129.867 88.0795 126.91 87.6354C127.449 86.3881 127.93 85.1165 128.352 83.8249C130.519 84.0423 132.647 83.8736 134.213 83.3352C135.434 82.9161 136.256 82.3921 136.747 81.655C137.17 78.4331 137.245 75.175 136.972 71.9369C136.963 71.9429 136.955 71.9507 136.946 71.9568C135.047 73.2075 132.718 73.9643 130.304 74.3185C130.423 72.9844 130.485 71.6327 130.475 70.2698C132.152 69.9349 133.695 69.3559 134.769 68.6489C135.529 68.148 136.027 67.6742 136.31 67.1602C135.7 63.9864 134.748 60.8879 133.472 57.9187C132.34 59.0978 130.904 60.0272 129.331 60.7436C129.023 59.4378 128.656 58.1464 128.233 56.8733C129.25 56.3414 130.126 55.7166 130.687 55.1135C131.155 54.6105 131.407 54.235 131.494 53.8899C130.237 51.6212 128.789 49.4634 127.167 47.4396C126.608 48.2432 125.912 48.9595 125.137 49.6031C124.511 48.4049 123.84 47.2309 123.125 46.0835C123.593 45.6249 123.962 45.1605 124.177 44.7731C124.291 44.5677 124.372 44.4225 124.422 44.3035C123.975 43.84 123.518 43.3856 123.053 42.9408C119.476 40.3167 116.574 39.0039 112.865 37.8079Z"/>
</mask>
<path d="M61.1316 37.8079C57.4222 39.0039 54.5199 40.3173 50.9437 42.9415C50.4801 43.3841 50.0255 43.8363 49.5804 44.2976C49.6312 44.4174 49.7096 44.5654 49.8254 44.7739C50.0404 45.1617 50.4111 45.6256 50.8775 46.0843C50.1628 47.2315 49.4919 48.4054 48.8664 49.6035C48.0907 48.96 47.3947 48.2438 46.8354 47.44C45.2135 49.4618 43.7661 51.6175 42.5087 53.884C42.5924 54.2303 42.8384 54.608 43.309 55.1139C43.8712 55.7179 44.7495 56.3418 45.7701 56.874C45.3416 58.1689 44.9741 59.4575 44.6723 60.7438C43.0973 60.0282 41.6567 59.0993 40.5243 57.9191C39.2477 60.8883 38.2962 63.9869 37.6863 67.1609C37.9689 67.6761 38.4726 68.148 39.2342 68.6495C40.308 69.3566 41.8508 69.9358 43.5278 70.2705C43.5183 71.6332 43.5808 72.9848 43.6997 74.3189C41.2849 73.9648 38.9567 73.208 37.0578 71.9573C37.0472 71.9501 37.0354 71.9446 37.0248 71.9374C36.7536 75.1757 36.8312 78.4337 37.2562 81.6554C37.7452 82.3921 38.5636 82.9165 39.7832 83.3359C41.351 83.8748 43.4819 84.0438 45.6514 83.8253C46.0748 85.1213 46.5564 86.3932 47.093 87.6358C44.1356 88.08 41.1154 87.9792 38.4997 87.0801C38.4283 87.0556 38.3589 87.0268 38.288 87.0007C39.1253 90.2565 40.3212 93.4093 41.8538 96.4013C42.6059 96.9949 43.6214 97.2938 44.9699 97.3869C46.9387 97.5233 49.446 97.0207 51.8369 96.0441C52.6208 97.1544 53.4507 98.2314 54.3243 99.2725C51.2399 100.694 47.8972 101.532 44.7847 101.337C46.8919 104.431 49.3689 107.257 52.161 109.751C53.0628 110.058 54.1298 110.062 55.4156 109.811C57.4479 109.414 59.8305 108.243 61.9845 106.635C61.9862 106.636 61.99 106.634 61.9913 106.635C63.0795 107.476 64.2029 108.271 65.3585 109.017C62.8232 111.115 59.9338 112.763 56.9902 113.509C59.4772 115.192 62.1253 116.623 64.8955 117.782C65.9406 117.872 67.0739 117.579 68.3555 116.955C69.9796 116.165 71.696 114.785 73.2308 113.086C76.8372 114.522 80.5834 115.461 84.3581 115.818L84.7349 111.875C81.7145 111.589 78.6839 110.865 75.7248 109.771C77.1819 107.419 78.1826 104.865 78.4641 102.692C78.7135 100.763 78.4817 99.2721 77.6635 98.1541C75.953 97.8196 74.2996 97.32 72.7151 96.6722C72.6787 98.0419 72.354 99.4215 71.8218 100.714C71.029 102.641 69.8064 104.482 68.3224 106.159C67.1847 105.459 66.0787 104.709 65.0079 103.91C66.4093 102.389 67.532 100.741 68.1634 99.206C68.9692 97.2487 69.0469 95.6965 68.2958 94.3773C66.6555 93.3279 65.1197 92.1043 63.6982 90.7319C63.3228 91.6422 62.8118 92.5038 62.2095 93.2921C61.0503 94.8089 59.5481 96.1521 57.8564 97.2942C56.9843 96.295 56.1519 95.2613 55.369 94.1848C56.8831 93.1911 58.1837 92.0467 59.0673 90.8904C60.1339 89.4945 60.5958 88.2633 60.4366 87.06C59.371 85.6539 58.4155 84.1676 57.5787 82.6144C57.0944 83.1842 56.551 83.701 55.9577 84.1562C54.5271 85.2517 52.8251 86.0943 51.0028 86.7029C50.4535 85.4983 49.9534 84.2688 49.5209 83.0116C51.0932 82.5024 52.5122 81.8085 53.5495 81.0138C54.7553 80.0904 55.4128 79.2049 55.5674 78.2088C54.9184 76.4913 54.3944 74.729 53.9996 72.9359C53.6042 73.1636 53.193 73.3626 52.7692 73.5314C51.1921 74.1553 49.435 74.4701 47.6292 74.537C47.4864 73.2208 47.4134 71.898 47.4105 70.574C48.8833 70.5184 50.2608 70.2698 51.3142 69.8532C52.288 69.4679 52.922 69.0488 53.2921 68.5301C53.0712 66.434 53.0136 64.3239 53.12 62.2189C52.9824 62.2409 52.8469 62.257 52.7097 62.2718C51.3074 62.4253 49.84 62.3035 48.3898 61.9875C48.6799 60.7215 49.0398 59.445 49.4682 58.1636C50.4992 58.3611 51.4874 58.4225 52.2795 58.3359C52.8329 58.2754 53.2389 58.1759 53.5497 58.0383C53.8405 56.1738 54.2628 54.3323 54.8135 52.5275C53.9282 52.3716 53.0598 52.0846 52.2203 51.7071C52.8336 50.5239 53.4935 49.3654 54.1983 48.2343C54.7094 48.4381 55.1967 48.5867 55.6139 48.6513C55.8483 48.6873 56.0422 48.7074 56.2029 48.7106C56.6148 47.7283 57.0543 46.7693 57.5328 45.8394C58.7813 43.3409 60.1609 40.7053 61.1316 37.8079ZM112.865 37.8079C113.835 40.7051 115.214 43.3405 116.463 45.8392C116.946 46.7783 117.392 47.7361 117.799 48.7102C117.958 48.7068 118.151 48.6862 118.381 48.6509C118.801 48.5861 119.291 48.4392 119.804 48.2338C120.509 49.365 121.169 50.5236 121.782 51.7069C120.94 52.085 120.068 52.3716 119.182 52.5275C119.725 54.3036 120.15 56.1474 120.446 58.0379C120.758 58.1772 121.166 58.275 121.723 58.3359C122.515 58.4227 123.503 58.3613 124.534 58.1638C124.953 59.4226 125.311 60.7009 125.606 61.9945C124.159 62.3093 122.693 62.4255 121.293 62.2724C121.153 62.2581 121.015 62.2405 120.876 62.2195C120.985 64.3243 120.929 66.4343 120.711 68.5306C121.081 69.0492 121.715 69.4684 122.689 69.8536C123.74 70.2696 125.115 70.5184 126.585 70.5747C126.583 71.8986 126.51 73.2214 126.367 74.5376C124.564 74.4699 122.809 74.1549 121.234 73.5321C120.81 73.3626 120.399 73.1635 120.003 72.9363C119.608 74.7271 119.084 76.487 118.435 78.2023C118.587 79.2015 119.239 80.0889 120.446 81.014C121.485 81.8085 122.903 82.5022 124.476 83.0116C124.043 84.269 123.543 85.4983 122.994 86.7031C121.174 86.0945 119.475 85.2504 118.045 84.1564C117.45 83.7015 116.904 83.1847 116.418 82.6146C115.569 84.1858 114.614 85.6724 113.56 87.0602C113.399 88.2631 113.863 89.4951 114.93 90.8909C115.812 92.0461 117.113 93.192 118.627 94.1855C117.845 95.2619 117.012 96.2952 116.14 97.2946C114.448 96.1523 112.946 94.8093 111.787 93.2923C111.186 92.5059 110.679 91.6458 110.305 90.7384C108.885 92.1098 107.347 93.3287 105.707 94.377C104.956 95.6965 105.034 97.2487 105.84 99.2062C106.472 100.741 107.594 102.389 108.996 103.91C107.923 104.709 106.815 105.459 105.675 106.159C104.192 104.482 102.975 102.641 102.182 100.714C101.65 99.4217 101.325 98.0421 101.288 96.6727C99.6888 97.3267 98.0294 97.823 96.3335 98.1545C95.5136 99.2723 95.2835 100.763 95.5333 102.693C95.8142 104.865 96.8204 107.42 98.2784 109.771C95.3201 110.865 92.2889 111.589 89.2682 111.875L89.6387 115.818C93.4153 115.461 97.1636 114.523 100.773 113.086C102.307 114.785 104.024 116.165 105.648 116.955C106.93 117.579 108.063 117.872 109.108 117.782C111.878 116.623 114.526 115.192 117.013 113.509C114.071 112.764 111.178 111.118 108.645 109.023C109.797 108.281 110.918 107.479 112.012 106.635C114.167 108.245 116.554 109.414 118.588 109.81C119.87 110.061 120.935 110.061 121.836 109.758C124.631 107.261 127.11 104.433 129.219 101.336C126.106 101.532 122.757 100.694 119.672 99.2723C120.545 98.2322 121.38 97.1574 122.166 96.0439C124.557 97.0198 127.064 97.5228 129.034 97.3865C130.382 97.2934 131.397 96.9944 132.149 96.4008C133.682 93.4088 134.878 90.2561 135.715 87.0003C135.644 87.0264 135.575 87.0554 135.503 87.0797C132.888 87.9788 129.867 88.0795 126.91 87.6354C127.449 86.3881 127.93 85.1165 128.352 83.8249C130.519 84.0423 132.647 83.8736 134.213 83.3352C135.434 82.9161 136.256 82.3921 136.747 81.655C137.17 78.4331 137.245 75.175 136.972 71.9369C136.963 71.9429 136.955 71.9507 136.946 71.9568C135.047 73.2075 132.718 73.9643 130.304 74.3185C130.423 72.9844 130.485 71.6327 130.475 70.2698C132.152 69.9349 133.695 69.3559 134.769 68.6489C135.529 68.148 136.027 67.6742 136.31 67.1602C135.7 63.9864 134.748 60.8879 133.472 57.9187C132.34 59.0978 130.904 60.0272 129.331 60.7436C129.023 59.4378 128.656 58.1464 128.233 56.8733C129.25 56.3414 130.126 55.7166 130.687 55.1135C131.155 54.6105 131.407 54.235 131.494 53.8899C130.237 51.6212 128.789 49.4634 127.167 47.4396C126.608 48.2432 125.912 48.9595 125.137 49.6031C124.511 48.4049 123.84 47.2309 123.125 46.0835C123.593 45.6249 123.962 45.1605 124.177 44.7731C124.291 44.5677 124.372 44.4225 124.422 44.3035C123.975 43.84 123.518 43.3856 123.053 42.9408C119.476 40.3167 116.574 39.0039 112.865 37.8079Z" fill="#202020"/>
<path d="M61.1316 37.8079C57.4222 39.0039 54.5199 40.3173 50.9437 42.9415C50.4801 43.3841 50.0255 43.8363 49.5804 44.2976C49.6312 44.4174 49.7096 44.5654 49.8254 44.7739C50.0404 45.1617 50.4111 45.6256 50.8775 46.0843C50.1628 47.2315 49.4919 48.4054 48.8664 49.6035C48.0907 48.96 47.3947 48.2438 46.8354 47.44C45.2135 49.4618 43.7661 51.6175 42.5087 53.884C42.5924 54.2303 42.8384 54.608 43.309 55.1139C43.8712 55.7179 44.7495 56.3418 45.7701 56.874C45.3416 58.1689 44.9741 59.4575 44.6723 60.7438C43.0973 60.0282 41.6567 59.0993 40.5243 57.9191C39.2477 60.8883 38.2962 63.9869 37.6863 67.1609C37.9689 67.6761 38.4726 68.148 39.2342 68.6495C40.308 69.3566 41.8508 69.9358 43.5278 70.2705C43.5183 71.6332 43.5808 72.9848 43.6997 74.3189C41.2849 73.9648 38.9567 73.208 37.0578 71.9573C37.0472 71.9501 37.0354 71.9446 37.0248 71.9374C36.7536 75.1757 36.8312 78.4337 37.2562 81.6554C37.7452 82.3921 38.5636 82.9165 39.7832 83.3359C41.351 83.8748 43.4819 84.0438 45.6514 83.8253C46.0748 85.1213 46.5564 86.3932 47.093 87.6358C44.1356 88.08 41.1154 87.9792 38.4997 87.0801C38.4283 87.0556 38.3589 87.0268 38.288 87.0007C39.1253 90.2565 40.3212 93.4093 41.8538 96.4013C42.6059 96.9949 43.6214 97.2938 44.9699 97.3869C46.9387 97.5233 49.446 97.0207 51.8369 96.0441C52.6208 97.1544 53.4507 98.2314 54.3243 99.2725C51.2399 100.694 47.8972 101.532 44.7847 101.337C46.8919 104.431 49.3689 107.257 52.161 109.751C53.0628 110.058 54.1298 110.062 55.4156 109.811C57.4479 109.414 59.8305 108.243 61.9845 106.635C61.9862 106.636 61.99 106.634 61.9913 106.635C63.0795 107.476 64.2029 108.271 65.3585 109.017C62.8232 111.115 59.9338 112.763 56.9902 113.509C59.4772 115.192 62.1253 116.623 64.8955 117.782C65.9406 117.872 67.0739 117.579 68.3555 116.955C69.9796 116.165 71.696 114.785 73.2308 113.086C76.8372 114.522 80.5834 115.461 84.3581 115.818L84.7349 111.875C81.7145 111.589 78.6839 110.865 75.7248 109.771C77.1819 107.419 78.1826 104.865 78.4641 102.692C78.7135 100.763 78.4817 99.2721 77.6635 98.1541C75.953 97.8196 74.2996 97.32 72.7151 96.6722C72.6787 98.0419 72.354 99.4215 71.8218 100.714C71.029 102.641 69.8064 104.482 68.3224 106.159C67.1847 105.459 66.0787 104.709 65.0079 103.91C66.4093 102.389 67.532 100.741 68.1634 99.206C68.9692 97.2487 69.0469 95.6965 68.2958 94.3773C66.6555 93.3279 65.1197 92.1043 63.6982 90.7319C63.3228 91.6422 62.8118 92.5038 62.2095 93.2921C61.0503 94.8089 59.5481 96.1521 57.8564 97.2942C56.9843 96.295 56.1519 95.2613 55.369 94.1848C56.8831 93.1911 58.1837 92.0467 59.0673 90.8904C60.1339 89.4945 60.5958 88.2633 60.4366 87.06C59.371 85.6539 58.4155 84.1676 57.5787 82.6144C57.0944 83.1842 56.551 83.701 55.9577 84.1562C54.5271 85.2517 52.8251 86.0943 51.0028 86.7029C50.4535 85.4983 49.9534 84.2688 49.5209 83.0116C51.0932 82.5024 52.5122 81.8085 53.5495 81.0138C54.7553 80.0904 55.4128 79.2049 55.5674 78.2088C54.9184 76.4913 54.3944 74.729 53.9996 72.9359C53.6042 73.1636 53.193 73.3626 52.7692 73.5314C51.1921 74.1553 49.435 74.4701 47.6292 74.537C47.4864 73.2208 47.4134 71.898 47.4105 70.574C48.8833 70.5184 50.2608 70.2698 51.3142 69.8532C52.288 69.4679 52.922 69.0488 53.2921 68.5301C53.0712 66.434 53.0136 64.3239 53.12 62.2189C52.9824 62.2409 52.8469 62.257 52.7097 62.2718C51.3074 62.4253 49.84 62.3035 48.3898 61.9875C48.6799 60.7215 49.0398 59.445 49.4682 58.1636C50.4992 58.3611 51.4874 58.4225 52.2795 58.3359C52.8329 58.2754 53.2389 58.1759 53.5497 58.0383C53.8405 56.1738 54.2628 54.3323 54.8135 52.5275C53.9282 52.3716 53.0598 52.0846 52.2203 51.7071C52.8336 50.5239 53.4935 49.3654 54.1983 48.2343C54.7094 48.4381 55.1967 48.5867 55.6139 48.6513C55.8483 48.6873 56.0422 48.7074 56.2029 48.7106C56.6148 47.7283 57.0543 46.7693 57.5328 45.8394C58.7813 43.3409 60.1609 40.7053 61.1316 37.8079ZM112.865 37.8079C113.835 40.7051 115.214 43.3405 116.463 45.8392C116.946 46.7783 117.392 47.7361 117.799 48.7102C117.958 48.7068 118.151 48.6862 118.381 48.6509C118.801 48.5861 119.291 48.4392 119.804 48.2338C120.509 49.365 121.169 50.5236 121.782 51.7069C120.94 52.085 120.068 52.3716 119.182 52.5275C119.725 54.3036 120.15 56.1474 120.446 58.0379C120.758 58.1772 121.166 58.275 121.723 58.3359C122.515 58.4227 123.503 58.3613 124.534 58.1638C124.953 59.4226 125.311 60.7009 125.606 61.9945C124.159 62.3093 122.693 62.4255 121.293 62.2724C121.153 62.2581 121.015 62.2405 120.876 62.2195C120.985 64.3243 120.929 66.4343 120.711 68.5306C121.081 69.0492 121.715 69.4684 122.689 69.8536C123.74 70.2696 125.115 70.5184 126.585 70.5747C126.583 71.8986 126.51 73.2214 126.367 74.5376C124.564 74.4699 122.809 74.1549 121.234 73.5321C120.81 73.3626 120.399 73.1635 120.003 72.9363C119.608 74.7271 119.084 76.487 118.435 78.2023C118.587 79.2015 119.239 80.0889 120.446 81.014C121.485 81.8085 122.903 82.5022 124.476 83.0116C124.043 84.269 123.543 85.4983 122.994 86.7031C121.174 86.0945 119.475 85.2504 118.045 84.1564C117.45 83.7015 116.904 83.1847 116.418 82.6146C115.569 84.1858 114.614 85.6724 113.56 87.0602C113.399 88.2631 113.863 89.4951 114.93 90.8909C115.812 92.0461 117.113 93.192 118.627 94.1855C117.845 95.2619 117.012 96.2952 116.14 97.2946C114.448 96.1523 112.946 94.8093 111.787 93.2923C111.186 92.5059 110.679 91.6458 110.305 90.7384C108.885 92.1098 107.347 93.3287 105.707 94.377C104.956 95.6965 105.034 97.2487 105.84 99.2062C106.472 100.741 107.594 102.389 108.996 103.91C107.923 104.709 106.815 105.459 105.675 106.159C104.192 104.482 102.975 102.641 102.182 100.714C101.65 99.4217 101.325 98.0421 101.288 96.6727C99.6888 97.3267 98.0294 97.823 96.3335 98.1545C95.5136 99.2723 95.2835 100.763 95.5333 102.693C95.8142 104.865 96.8204 107.42 98.2784 109.771C95.3201 110.865 92.2889 111.589 89.2682 111.875L89.6387 115.818C93.4153 115.461 97.1636 114.523 100.773 113.086C102.307 114.785 104.024 116.165 105.648 116.955C106.93 117.579 108.063 117.872 109.108 117.782C111.878 116.623 114.526 115.192 117.013 113.509C114.071 112.764 111.178 111.118 108.645 109.023C109.797 108.281 110.918 107.479 112.012 106.635C114.167 108.245 116.554 109.414 118.588 109.81C119.87 110.061 120.935 110.061 121.836 109.758C124.631 107.261 127.11 104.433 129.219 101.336C126.106 101.532 122.757 100.694 119.672 99.2723C120.545 98.2322 121.38 97.1574 122.166 96.0439C124.557 97.0198 127.064 97.5228 129.034 97.3865C130.382 97.2934 131.397 96.9944 132.149 96.4008C133.682 93.4088 134.878 90.2561 135.715 87.0003C135.644 87.0264 135.575 87.0554 135.503 87.0797C132.888 87.9788 129.867 88.0795 126.91 87.6354C127.449 86.3881 127.93 85.1165 128.352 83.8249C130.519 84.0423 132.647 83.8736 134.213 83.3352C135.434 82.9161 136.256 82.3921 136.747 81.655C137.17 78.4331 137.245 75.175 136.972 71.9369C136.963 71.9429 136.955 71.9507 136.946 71.9568C135.047 73.2075 132.718 73.9643 130.304 74.3185C130.423 72.9844 130.485 71.6327 130.475 70.2698C132.152 69.9349 133.695 69.3559 134.769 68.6489C135.529 68.148 136.027 67.6742 136.31 67.1602C135.7 63.9864 134.748 60.8879 133.472 57.9187C132.34 59.0978 130.904 60.0272 129.331 60.7436C129.023 59.4378 128.656 58.1464 128.233 56.8733C129.25 56.3414 130.126 55.7166 130.687 55.1135C131.155 54.6105 131.407 54.235 131.494 53.8899C130.237 51.6212 128.789 49.4634 127.167 47.4396C126.608 48.2432 125.912 48.9595 125.137 49.6031C124.511 48.4049 123.84 47.2309 123.125 46.0835C123.593 45.6249 123.962 45.1605 124.177 44.7731C124.291 44.5677 124.372 44.4225 124.422 44.3035C123.975 43.84 123.518 43.3856 123.053 42.9408C119.476 40.3167 116.574 39.0039 112.865 37.8079Z" stroke="#2E2E2E" stroke-width="2" mask="url(#path-10-inside-1_1448_317)"/>
</g>
<rect x="40.2887" y="86.9583" width="66" height="66" rx="11" transform="rotate(-45 40.2887 86.9583)" fill="#FEAD16"/>
<rect x="40.2887" y="86.9583" width="66" height="66" rx="11" transform="rotate(-45 40.2887 86.9583)" fill="#322200"/>
<rect x="40.2887" y="86.9583" width="66" height="66" rx="11" transform="rotate(-45 40.2887 86.9583)" stroke="#FEAD16" stroke-width="2"/>
<g clip-path="url(#clip0_1448_317)">
<rect x="78.9578" y="41.7034" width="16" height="45.2549" fill="url(#paint8_linear_1448_317)" fill-opacity="0.1"/>
<rect width="16" height="45.2549" transform="matrix(1 0 0 -1 78.9578 132.213)" fill="url(#paint9_linear_1448_317)" fill-opacity="0.1"/>
<rect x="41.7029" y="94.9583" width="16" height="45.2549" transform="rotate(-90 41.7029 94.9583)" fill="url(#paint10_linear_1448_317)" fill-opacity="0.1"/>
<rect width="16" height="45.2549" transform="matrix(0 -1 -1 0 132.213 94.9583)" fill="url(#paint11_linear_1448_317)" fill-opacity="0.1"/>
</g>
<rect x="113.301" y="49.3013" width="16" height="45.2549" transform="rotate(45 113.301 49.3013)" fill="url(#paint12_linear_1448_317)" fill-opacity="0.04"/>
<rect width="16" height="45.2549" transform="matrix(0.707107 0.707107 0.707107 -0.707107 49.3009 113.301)" fill="url(#paint13_linear_1448_317)" fill-opacity="0.04"/>
<rect x="49.3009" y="60.615" width="16" height="45.2549" transform="rotate(-45 49.3009 60.615)" fill="url(#paint14_linear_1448_317)" fill-opacity="0.04"/>
<rect width="16" height="45.2549" transform="matrix(0.707107 -0.707107 -0.707107 -0.707107 113.301 124.615)" fill="url(#paint15_linear_1448_317)" fill-opacity="0.04"/>
<g clip-path="url(#clip1_1448_317)">
<g filter="url(#filter2_d_1448_317)">
<path d="M85.291 98.3494V85.836C82.2266 85.6094 79.561 84.4994 77.2943 82.506C75.0277 80.5127 73.6077 78.0038 73.0343 74.9794C69.5077 74.5638 66.5021 73.1183 64.0177 70.6427C61.5332 68.1671 60.291 65.1805 60.291 61.6827V60.3994C60.291 58.9194 60.8188 57.6527 61.8743 56.5994C62.9299 55.546 64.1966 55.0183 65.6743 55.016H72.471V53.7327C72.471 52.2527 72.9977 50.986 74.051 49.9327C75.1066 48.8771 76.3755 48.3494 77.8577 48.3494H96.0644C97.5444 48.3494 98.811 48.8771 99.8643 49.9327C100.92 50.986 101.448 52.2527 101.448 53.7327V55.016H108.244C109.724 55.016 110.991 55.5438 112.044 56.5994C113.098 57.6549 113.624 58.9216 113.624 60.3994V61.6827C113.624 65.1783 112.382 68.1649 109.898 70.6427C107.413 73.1205 104.408 74.5649 100.881 74.976C100.308 78.0027 98.8877 80.5127 96.621 82.506C94.3543 84.4994 91.6888 85.6105 88.6243 85.8394V98.3494H97.3444C97.8155 98.3494 98.211 98.5094 98.531 98.8294C98.851 99.1494 99.011 99.546 99.011 100.019C99.011 100.493 98.851 100.888 98.531 101.206C98.211 101.524 97.8155 101.683 97.3444 101.683H76.5743C76.101 101.683 75.7043 101.523 75.3843 101.203C75.0643 100.883 74.9055 100.486 74.9077 100.013C74.9099 99.5394 75.0688 99.1438 75.3843 98.826C75.6999 98.5083 76.0966 98.3494 76.5743 98.3494H85.291ZM72.471 71.4027V58.3494H65.6743C65.0766 58.3494 64.5855 58.5416 64.201 58.926C63.8166 59.3105 63.6243 59.8027 63.6243 60.4027V61.6827C63.6243 64.1783 64.471 66.3483 66.1643 68.1927C67.8555 70.0371 69.9577 71.1071 72.471 71.4027ZM86.971 82.5794H86.9727C90.0386 82.579 92.6403 81.5068 94.7777 79.3627C96.9155 77.2205 97.9843 74.6171 97.9843 71.5527V53.736C97.9843 53.136 97.791 52.6438 97.4043 52.2594C97.0221 51.8749 96.531 51.6827 95.931 51.6827H77.9843C77.3843 51.6827 76.8932 51.8749 76.511 52.2594C76.1243 52.6438 75.931 53.136 75.931 53.736V71.556C75.931 74.6183 77.0043 77.2216 79.151 79.366C81.2995 81.5079 83.9067 82.579 86.9727 82.5794H86.9743M101.444 71.4027C103.958 71.1071 106.061 70.0371 107.754 68.1927C109.445 66.3483 110.291 64.1783 110.291 61.6827V60.3994C110.291 59.8016 110.099 59.3105 109.714 58.926C109.33 58.5416 108.839 58.3494 108.241 58.3494H101.444V71.4027Z" fill="url(#paint16_linear_1448_317)"/>
<path d="M86.9727 82.5794C90.0386 82.579 92.6403 81.5068 94.7777 79.3627C96.9155 77.2205 97.9843 74.6171 97.9843 71.5527V53.736C97.9843 53.136 97.791 52.6438 97.4043 52.2594C97.0221 51.8749 96.531 51.6827 95.931 51.6827H77.9843C77.3843 51.6827 76.8932 51.8749 76.511 52.2594C76.1243 52.6438 75.931 53.136 75.931 53.736V71.556C75.931 74.6183 77.0043 77.2216 79.151 79.366C81.2995 81.5079 83.9067 82.579 86.9727 82.5794Z" fill="url(#paint17_linear_1448_317)"/>
</g>
</g>
<g filter="url(#filter3_i_1448_317)">
<path d="M86.9578 69.4315L84.2155 71.0835C84.0943 71.1606 83.9677 71.1937 83.8355 71.1826C83.7033 71.1716 83.5877 71.1276 83.4886 71.0505C83.3895 70.9734 83.3124 70.8771 83.2573 70.7617C83.2022 70.6463 83.1912 70.5168 83.2243 70.3732L83.9511 67.2509L81.5227 65.1529C81.4126 65.0538 81.3439 64.9408 81.3166 64.8139C81.2892 64.687 81.2974 64.5633 81.341 64.4425C81.3846 64.3218 81.4507 64.2227 81.5392 64.1452C81.6278 64.0677 81.7489 64.0181 81.9027 63.9965L85.1075 63.7157L86.3465 60.7751C86.4016 60.643 86.4871 60.5439 86.6029 60.4778C86.7188 60.4117 86.8371 60.3787 86.9578 60.3787C87.0785 60.3787 87.1967 60.4117 87.3126 60.4778C87.4285 60.5439 87.5139 60.643 87.569 60.7751L88.808 63.7157L92.0128 63.9965C92.167 64.0185 92.2882 64.0681 92.3763 64.1452C92.4644 64.2223 92.5305 64.3214 92.5745 64.4425C92.6186 64.5637 92.6269 64.6877 92.5996 64.8146C92.5723 64.9414 92.5034 65.0542 92.3928 65.1529L89.9644 67.2509L90.6912 70.3732C90.7243 70.5163 90.7133 70.6459 90.6582 70.7617C90.6031 70.8776 90.526 70.9738 90.4269 71.0505C90.3278 71.1271 90.2122 71.1712 90.08 71.1826C89.9479 71.1941 89.8212 71.1611 89.7001 71.0835L86.9578 69.4315Z" fill="black"/>
</g>
<g filter="url(#filter4_d_1448_317)">
<rect x="51.9995" y="88.615" width="70" height="19" rx="9.5" fill="#202020" shape-rendering="crispEdges"/>
<rect x="52.4995" y="89.115" width="69" height="18" rx="9" stroke="#2E2E2E" shape-rendering="crispEdges"/>
<path d="M73.3507 94.194L74.0347 102.594H72.6547L72.1027 95.514H70.7827L67.7947 102.594H66.3547L69.9307 94.194H73.3507ZM76.5806 100.794L81.5126 94.194H83.3726L81.8966 102.594H80.5166L81.4886 97.074L81.8006 95.994H81.6806L76.7366 102.594H74.8766L76.3526 94.194H77.7326L76.7606 99.714L76.4606 100.794H76.5806ZM90.5804 94.194L91.1324 101.274H92.0924L91.5884 104.154H90.2684L90.5444 102.594H84.2444L83.9684 104.154H82.6484L83.1524 101.274H84.1124L87.1604 94.194H90.5804ZM87.9884 95.514L85.5284 101.274H89.7284L89.3084 95.514H87.9884ZM94.2385 101.274H98.9185L98.6905 102.594H92.6305L94.1065 94.194H100.166L99.9385 95.514H95.2585L94.8745 97.674H98.6545L98.4265 98.994H94.6465L94.2385 101.274ZM104.731 95.514H102.559L102.031 98.514H104.611C105.179 98.514 105.619 98.366 105.931 98.07C106.251 97.766 106.411 97.358 106.411 96.846C106.411 96.462 106.263 96.146 105.967 95.898C105.671 95.642 105.259 95.514 104.731 95.514ZM101.407 94.194H104.851C105.723 94.194 106.439 94.446 106.999 94.95C107.567 95.454 107.851 96.062 107.851 96.774C107.851 97.63 107.535 98.354 106.903 98.946C106.271 99.538 105.467 99.834 104.491 99.834H101.803L101.311 102.594H99.9312L101.407 94.194Z" fill="white"/>
</g>
<g filter="url(#filter5_d_1448_317)">
<rect x="66.9995" y="106.615" width="40" height="18" rx="9" fill="#2C1C00" shape-rendering="crispEdges"/>
<rect x="67.4995" y="107.115" width="39" height="17" rx="8.5" stroke="#FEAD16" shape-rendering="crispEdges"/>
<path d="M90.2914 117.535H86.2314L86.4694 116.205H90.5294L90.2914 117.535ZM88.9894 114.035C89.3068 114.035 89.5681 113.928 89.7734 113.713C89.9881 113.489 90.0954 113.2 90.0954 112.845C90.0954 112.556 90.0114 112.332 89.8434 112.173C89.6754 112.014 89.4281 111.935 89.1014 111.935C88.7841 111.935 88.5181 112.047 88.3034 112.271C88.0981 112.486 87.9954 112.77 87.9954 113.125C87.9954 113.414 88.0794 113.638 88.2474 113.797C88.4154 113.956 88.6628 114.035 88.9894 114.035ZM88.8354 115.295C88.2008 115.295 87.6781 115.094 87.2674 114.693C86.8661 114.292 86.6654 113.792 86.6654 113.195C86.6654 112.523 86.9221 111.935 87.4354 111.431C87.9488 110.927 88.5554 110.675 89.2554 110.675C89.8901 110.675 90.4081 110.876 90.8094 111.277C91.2201 111.678 91.4254 112.178 91.4254 112.775C91.4254 113.447 91.1688 114.035 90.6554 114.539C90.1421 115.043 89.5354 115.295 88.8354 115.295ZM82.2554 120.615L79.2174 112.845H79.0774L79.0074 114.035L77.8454 120.615H76.2354L77.9574 110.815H80.1274L83.1794 118.585H83.3194L83.3894 117.395L84.5374 110.815H86.1474L84.4254 120.615H82.2554ZM96.0482 114.455C96.8882 114.455 97.5648 114.716 98.0782 115.239C98.5915 115.762 98.8482 116.457 98.8482 117.325C98.8482 118.314 98.4795 119.159 97.7422 119.859C97.0142 120.55 96.0995 120.895 94.9982 120.895C93.5048 120.895 92.4315 120.372 91.7782 119.327C91.4888 118.851 91.3255 118.324 91.2882 117.745H92.9682L93.0102 117.983C93.0662 118.31 93.2622 118.622 93.5982 118.921C93.9435 119.21 94.4568 119.355 95.1382 119.355C95.7542 119.355 96.2582 119.173 96.6502 118.809C97.0422 118.445 97.2382 117.997 97.2382 117.465C97.2382 117.036 97.0888 116.686 96.7902 116.415C96.4915 116.135 96.0762 115.972 95.5442 115.925H93.1642L93.4022 114.525L96.7202 112.425L96.7342 112.355H92.6742L92.9402 110.815H99.3802L99.1142 112.341L96.2722 114.175L95.5162 114.455L95.5022 114.525L95.6702 114.497C95.8662 114.469 95.9922 114.455 96.0482 114.455Z" fill="#FEAD16"/>
</g>
<defs>
<filter id="filter0_f_1448_317" x="0.922485" y="0.923096" width="172.07" height="172.07" filterUnits="userSpaceOnUse" color-interpolation-filters="sRGB">
<feFlood flood-opacity="0" result="BackgroundImageFix"/>
<feBlend mode="normal" in="SourceGraphic" in2="BackgroundImageFix" result="shape"/>
<feGaussianBlur stdDeviation="15" result="effect1_foregroundBlur_1448_317"/>
</filter>
<filter id="filter1_d_1448_317" x="32.8666" y="34.8079" width="108.266" height="87.9902" filterUnits="userSpaceOnUse" color-interpolation-filters="sRGB">
<feFlood flood-opacity="0" result="BackgroundImageFix"/>
<feColorMatrix in="SourceAlpha" type="matrix" values="0 0 0 0 0 0 0 0 0 0 0 0 0 0 0 0 0 0 127 0" result="hardAlpha"/>
<feOffset dy="1"/>
<feGaussianBlur stdDeviation="2"/>
<feComposite in2="hardAlpha" operator="out"/>
<feColorMatrix type="matrix" values="0 0 0 0 0 0 0 0 0 0 0 0 0 0 0 0 0 0 0.1 0"/>
<feBlend mode="normal" in2="BackgroundImageFix" result="effect1_dropShadow_1448_317"/>
<feBlend mode="normal" in="SourceGraphic" in2="effect1_dropShadow_1448_317" result="shape"/>
</filter>
<filter id="filter2_d_1448_317" x="50.291" y="42.3494" width="73.3334" height="73.3333" filterUnits="userSpaceOnUse" color-interpolation-filters="sRGB">
<feFlood flood-opacity="0" result="BackgroundImageFix"/>
<feColorMatrix in="SourceAlpha" type="matrix" values="0 0 0 0 0 0 0 0 0 0 0 0 0 0 0 0 0 0 127 0" result="hardAlpha"/>
<feOffset dy="4"/>
<feGaussianBlur stdDeviation="5"/>
<feComposite in2="hardAlpha" operator="out"/>
<feColorMatrix type="matrix" values="0 0 0 0 0 0 0 0 0 0 0 0 0 0 0 0 0 0 1 0"/>
<feBlend mode="normal" in2="BackgroundImageFix" result="effect1_dropShadow_1448_317"/>
<feBlend mode="normal" in="SourceGraphic" in2="effect1_dropShadow_1448_317" result="shape"/>
</filter>
<filter id="filter3_i_1448_317" x="81.3008" y="60.3787" width="11.3146" height="13.8062" filterUnits="userSpaceOnUse" color-interpolation-filters="sRGB">
<feFlood flood-opacity="0" result="BackgroundImageFix"/>
<feBlend mode="normal" in="SourceGraphic" in2="BackgroundImageFix" result="shape"/>
<feColorMatrix in="SourceAlpha" type="matrix" values="0 0 0 0 0 0 0 0 0 0 0 0 0 0 0 0 0 0 127 0" result="hardAlpha"/>
<feOffset dy="3"/>
<feGaussianBlur stdDeviation="1.5"/>
<feComposite in2="hardAlpha" operator="arithmetic" k2="-1" k3="1"/>
<feColorMatrix type="matrix" values="0 0 0 0 0.270833 0 0 0 0 0.262828 0 0 0 0 0 0 0 0 1 0"/>
<feBlend mode="normal" in2="shape" result="effect1_innerShadow_1448_317"/>
</filter>
<filter id="filter4_d_1448_317" x="47.9995" y="85.615" width="78" height="27" filterUnits="userSpaceOnUse" color-interpolation-filters="sRGB">
<feFlood flood-opacity="0" result="BackgroundImageFix"/>
<feColorMatrix in="SourceAlpha" type="matrix" values="0 0 0 0 0 0 0 0 0 0 0 0 0 0 0 0 0 0 127 0" result="hardAlpha"/>
<feOffset dy="1"/>
<feGaussianBlur stdDeviation="2"/>
<feComposite in2="hardAlpha" operator="out"/>
<feColorMatrix type="matrix" values="0 0 0 0 0 0 0 0 0 0 0 0 0 0 0 0 0 0 1 0"/>
<feBlend mode="normal" in2="BackgroundImageFix" result="effect1_dropShadow_1448_317"/>
<feBlend mode="normal" in="SourceGraphic" in2="effect1_dropShadow_1448_317" result="shape"/>
</filter>
<filter id="filter5_d_1448_317" x="62.9995" y="103.615" width="48" height="26" filterUnits="userSpaceOnUse" color-interpolation-filters="sRGB">
<feFlood flood-opacity="0" result="BackgroundImageFix"/>
<feColorMatrix in="SourceAlpha" type="matrix" values="0 0 0 0 0 0 0 0 0 0 0 0 0 0 0 0 0 0 127 0" result="hardAlpha"/>
<feOffset dy="1"/>
<feGaussianBlur stdDeviation="2"/>
<feComposite in2="hardAlpha" operator="out"/>
<feColorMatrix type="matrix" values="0 0 0 0 0 0 0 0 0 0 0 0 0 0 0 0 0 0 1 0"/>
<feBlend mode="normal" in2="BackgroundImageFix" result="effect1_dropShadow_1448_317"/>
<feBlend mode="normal" in="SourceGraphic" in2="effect1_dropShadow_1448_317" result="shape"/>
</filter>
<linearGradient id="paint0_linear_1448_317" x1="132.718" y1="36.7832" x2="132.718" y2="97.082" gradientUnits="userSpaceOnUse">
<stop stop-color="white"/>
<stop offset="1" stop-color="#BBBBBB" stop-opacity="0"/>
</linearGradient>
<linearGradient id="paint1_linear_1448_317" x1="10.6594" y1="0" x2="10.6594" y2="60.2988" gradientUnits="userSpaceOnUse">
<stop stop-color="white"/>
<stop offset="1" stop-color="#BBBBBB" stop-opacity="0"/>
</linearGradient>
<linearGradient id="paint2_linear_1448_317" x1="47.4421" y1="51.8579" x2="47.4421" y2="112.157" gradientUnits="userSpaceOnUse">
<stop stop-color="white"/>
<stop offset="1" stop-color="#BBBBBB" stop-opacity="0"/>
</linearGradient>
<linearGradient id="paint3_linear_1448_317" x1="10.6594" y1="0" x2="10.6594" y2="60.2988" gradientUnits="userSpaceOnUse">
<stop stop-color="white"/>
<stop offset="1" stop-color="#BBBBBB" stop-opacity="0"/>
</linearGradient>
<linearGradient id="paint4_linear_1448_317" x1="86.9578" y1="26.6594" x2="86.9578" y2="86.9582" gradientUnits="userSpaceOnUse">
<stop stop-color="white"/>
<stop offset="1" stop-color="#BBBBBB" stop-opacity="0"/>
</linearGradient>
<linearGradient id="paint5_linear_1448_317" x1="10.6594" y1="0" x2="10.6594" y2="60.2988" gradientUnits="userSpaceOnUse">
<stop stop-color="white"/>
<stop offset="1" stop-color="#BBBBBB" stop-opacity="0"/>
</linearGradient>
<linearGradient id="paint6_linear_1448_317" x1="37.3182" y1="97.6177" x2="37.3182" y2="157.916" gradientUnits="userSpaceOnUse">
<stop stop-color="white"/>
<stop offset="1" stop-color="#BBBBBB" stop-opacity="0"/>
</linearGradient>
<linearGradient id="paint7_linear_1448_317" x1="10.6594" y1="0" x2="10.6594" y2="60.2988" gradientUnits="userSpaceOnUse">
<stop stop-color="white"/>
<stop offset="1" stop-color="#BBBBBB" stop-opacity="0"/>
</linearGradient>
<linearGradient id="paint8_linear_1448_317" x1="86.9578" y1="41.7034" x2="86.9578" y2="86.9582" gradientUnits="userSpaceOnUse">
<stop stop-color="white"/>
<stop offset="1" stop-color="#1C1C1C" stop-opacity="0"/>
</linearGradient>
<linearGradient id="paint9_linear_1448_317" x1="8" y1="0" x2="8" y2="45.2549" gradientUnits="userSpaceOnUse">
<stop stop-color="white"/>
<stop offset="1" stop-color="#1C1C1C" stop-opacity="0"/>
</linearGradient>
<linearGradient id="paint10_linear_1448_317" x1="49.7029" y1="94.9583" x2="49.7029" y2="140.213" gradientUnits="userSpaceOnUse">
<stop stop-color="white"/>
<stop offset="1" stop-color="#1C1C1C" stop-opacity="0"/>
</linearGradient>
<linearGradient id="paint11_linear_1448_317" x1="8" y1="0" x2="8" y2="45.2549" gradientUnits="userSpaceOnUse">
<stop stop-color="white"/>
<stop offset="1" stop-color="#1C1C1C" stop-opacity="0"/>
</linearGradient>
<linearGradient id="paint12_linear_1448_317" x1="121.301" y1="49.3013" x2="121.301" y2="94.5561" gradientUnits="userSpaceOnUse">
<stop stop-color="white"/>
<stop offset="1" stop-color="#1C1C1C" stop-opacity="0"/>
</linearGradient>
<linearGradient id="paint13_linear_1448_317" x1="8" y1="0" x2="8" y2="45.2549" gradientUnits="userSpaceOnUse">
<stop stop-color="white"/>
<stop offset="1" stop-color="#1C1C1C" stop-opacity="0"/>
</linearGradient>
<linearGradient id="paint14_linear_1448_317" x1="57.3009" y1="60.615" x2="57.3009" y2="105.87" gradientUnits="userSpaceOnUse">
<stop stop-color="white"/>
<stop offset="1" stop-color="#1C1C1C" stop-opacity="0"/>
</linearGradient>
<linearGradient id="paint15_linear_1448_317" x1="8" y1="0" x2="8" y2="45.2549" gradientUnits="userSpaceOnUse">
<stop stop-color="white"/>
<stop offset="1" stop-color="#1C1C1C" stop-opacity="0"/>
</linearGradient>
<linearGradient id="paint16_linear_1448_317" x1="86.9577" y1="48.3494" x2="86.9577" y2="101.683" gradientUnits="userSpaceOnUse">
<stop stop-color="#FEAD16"/>
<stop offset="1" stop-color="#E69C14"/>
</linearGradient>
<linearGradient id="paint17_linear_1448_317" x1="75.5583" y1="50.2938" x2="99.0302" y2="82.2265" gradientUnits="userSpaceOnUse">
<stop stop-color="#FEAD16"/>
<stop offset="1" stop-color="#FFE96A"/>
</linearGradient>
<clipPath id="clip0_1448_317">
<rect x="41.7029" y="86.9583" width="64" height="64" rx="10" transform="rotate(-45 41.7029 86.9583)" fill="white"/>
</clipPath>
<clipPath id="clip1_1448_317">
<rect width="80" height="80" fill="white" transform="translate(46.9576 35.0161)"/>
</clipPath>
</defs>
</svg>
