<svg width="173" height="173" viewBox="0 0 173 173" fill="none" xmlns="http://www.w3.org/2000/svg">
<rect width="141.916" height="141.916" transform="translate(16 16)" fill="white"/>
<rect x="122.059" y="36.7832" width="21.3188" height="60.2988" transform="rotate(45 122.059 36.7832)" fill="url(#paint0_linear_1448_281)"/>
<rect width="21.3188" height="60.2988" transform="matrix(0.707107 0.707107 0.707107 -0.707107 36.7832 122.058)" fill="url(#paint1_linear_1448_281)"/>
<rect x="36.7832" y="51.8579" width="21.3188" height="60.2988" transform="rotate(-45 36.7832 51.8579)" fill="url(#paint2_linear_1448_281)"/>
<rect width="21.3188" height="60.2988" transform="matrix(0.707107 -0.707107 -0.707107 -0.707107 122.058 137.133)" fill="url(#paint3_linear_1448_281)"/>
<rect x="76.2988" y="26.6594" width="21.3188" height="60.2988" fill="url(#paint4_linear_1448_281)"/>
<rect width="21.3188" height="60.2988" transform="matrix(1 0 0 -1 76.2987 147.257)" fill="url(#paint5_linear_1448_281)"/>
<rect x="26.6593" y="97.6177" width="21.3188" height="60.2988" transform="rotate(-90 26.6593 97.6177)" fill="url(#paint6_linear_1448_281)"/>
<rect width="21.3188" height="60.2988" transform="matrix(0 -1 -1 0 147.257 97.6177)" fill="url(#paint7_linear_1448_281)"/>
<g opacity="0.5" filter="url(#filter0_f_1448_281)">
<circle cx="86.9581" cy="86.9583" r="56.0352" fill="#4F4F4F"/>
</g>
<g filter="url(#filter1_d_1448_281)">
<mask id="path-10-inside-1_1448_281" fill="white">
<path d="M61.1321 37.8079C57.4227 39.0039 54.5204 40.3173 50.9442 42.9415C50.4805 43.3841 50.026 43.8363 49.5809 44.2976C49.6317 44.4174 49.71 44.5654 49.8258 44.7739C50.0409 45.1617 50.4116 45.6256 50.878 46.0843C50.1633 47.2315 49.4924 48.4054 48.8669 49.6035C48.0912 48.96 47.3952 48.2438 46.8359 47.44C45.214 49.4618 43.7666 51.6175 42.5092 53.884C42.5929 54.2303 42.8388 54.608 43.3094 55.1139C43.8717 55.7179 44.75 56.3418 45.7706 56.874C45.3421 58.1689 44.9746 59.4575 44.6728 60.7438C43.0977 60.0282 41.6572 59.0993 40.5248 57.9191C39.2482 60.8883 38.2966 63.9869 37.6868 67.1609C37.9694 67.6761 38.4731 68.148 39.2347 68.6495C40.3085 69.3566 41.8513 69.9358 43.5283 70.2705C43.5188 71.6332 43.5813 72.9848 43.7002 74.3189C41.2854 73.9648 38.9572 73.208 37.0583 71.9573C37.0477 71.9501 37.0359 71.9446 37.0253 71.9374C36.7541 75.1757 36.8317 78.4337 37.2567 81.6554C37.7457 82.3921 38.5641 82.9165 39.7837 83.3359C41.3515 83.8748 43.4824 84.0438 45.6518 83.8253C46.0752 85.1213 46.5568 86.3932 47.0935 87.6358C44.1361 88.08 41.1159 87.9792 38.5002 87.0801C38.4288 87.0556 38.3594 87.0268 38.2885 87.0007C39.1258 90.2565 40.3217 93.4093 41.8542 96.4013C42.6064 96.9949 43.6219 97.2938 44.9704 97.3869C46.9392 97.5233 49.4465 97.0207 51.8374 96.0441C52.6213 97.1544 53.4511 98.2314 54.3248 99.2725C51.2404 100.694 47.8977 101.532 44.7852 101.337C46.8923 104.431 49.3694 107.257 52.1615 109.751C53.0633 110.058 54.1302 110.062 55.4161 109.811C57.4484 109.414 59.831 108.243 61.985 106.635C61.9867 106.636 61.9905 106.634 61.9918 106.635C63.08 107.476 64.2034 108.271 65.359 109.017C62.8237 111.115 59.9343 112.763 56.9907 113.509C59.4776 115.192 62.1258 116.623 64.896 117.782C65.9411 117.872 67.0743 117.579 68.3559 116.955C69.9801 116.165 71.6965 114.785 73.2313 113.086C76.8377 114.522 80.5839 115.461 84.3586 115.818L84.7354 111.875C81.715 111.589 78.6843 110.865 75.7253 109.771C77.1824 107.419 78.183 104.865 78.4646 102.692C78.714 100.763 78.4822 99.2721 77.664 98.1541C75.9535 97.8196 74.3001 97.32 72.7156 96.6722C72.6792 98.0419 72.3544 99.4215 71.8222 100.714C71.0294 102.641 69.8069 104.482 68.3229 106.159C67.1852 105.459 66.0792 104.709 65.0084 103.91C66.4098 102.389 67.5324 100.741 68.1639 99.206C68.9696 97.2487 69.0473 95.6965 68.2962 94.3773C66.656 93.3279 65.1202 92.1043 63.6987 90.7319C63.3233 91.6422 62.8123 92.5038 62.21 93.2921C61.0508 94.8089 59.5486 96.1521 57.8569 97.2942C56.9847 96.295 56.1524 95.2613 55.3695 94.1848C56.8835 93.1911 58.1842 92.0467 59.0678 90.8904C60.1343 89.4945 60.5963 88.2633 60.4371 87.06C59.3715 85.6539 58.416 84.1676 57.5792 82.6144C57.0948 83.1842 56.5515 83.701 55.9582 84.1562C54.5276 85.2517 52.8256 86.0943 51.0033 86.7029C50.4539 85.4983 49.9539 84.2688 49.5214 83.0116C51.0937 82.5024 52.5127 81.8085 53.55 81.0138C54.7558 80.0904 55.4133 79.2049 55.5679 78.2088C54.9189 76.4913 54.3949 74.729 54 72.9359C53.6047 73.1636 53.1935 73.3626 52.7697 73.5314C51.1925 74.1553 49.4355 74.4701 47.6297 74.537C47.4869 73.2208 47.4139 71.898 47.411 70.574C48.8838 70.5184 50.2613 70.2698 51.3147 69.8532C52.2885 69.4679 52.9225 69.0488 53.2926 68.5301C53.0716 66.434 53.0141 64.3239 53.1205 62.2189C52.9829 62.2409 52.8474 62.257 52.7102 62.2718C51.3079 62.4253 49.8404 62.3035 48.3903 61.9875C48.6804 60.7215 49.0402 59.445 49.4687 58.1636C50.4997 58.3611 51.4879 58.4225 52.28 58.3359C52.8334 58.2754 53.2394 58.1759 53.5502 58.0383C53.841 56.1738 54.2633 54.3323 54.814 52.5275C53.9287 52.3716 53.0603 52.0846 52.2208 51.7071C52.8341 50.5239 53.494 49.3654 54.1988 48.2343C54.7099 48.4381 55.1972 48.5867 55.6144 48.6513C55.8488 48.6873 56.0427 48.7074 56.2034 48.7106C56.6153 47.7283 57.0548 46.7693 57.5332 45.8394C58.7818 43.3409 60.1614 40.7053 61.1321 37.8079ZM112.865 37.8079C113.835 40.7051 115.215 43.3405 116.464 45.8392C116.946 46.7783 117.392 47.7361 117.8 48.7102C117.959 48.7068 118.151 48.6862 118.382 48.6509C118.801 48.5861 119.291 48.4392 119.804 48.2338C120.509 49.365 121.169 50.5236 121.783 51.7069C120.941 52.085 120.069 52.3716 119.183 52.5275C119.725 54.3036 120.151 56.1474 120.446 58.0379C120.758 58.1772 121.167 58.275 121.723 58.3359C122.515 58.4227 123.504 58.3613 124.535 58.1638C124.954 59.4226 125.312 60.7009 125.606 61.9945C124.159 62.3093 122.693 62.4255 121.293 62.2724C121.154 62.2581 121.015 62.2405 120.877 62.2195C120.985 64.3243 120.93 66.4343 120.711 68.5306C121.082 69.0492 121.716 69.4684 122.689 69.8536C123.741 70.2696 125.116 70.5184 126.586 70.5747C126.583 71.8986 126.51 73.2214 126.368 74.5376C124.564 74.4699 122.81 74.1549 121.234 73.5321C120.811 73.3626 120.399 73.1635 120.004 72.9363C119.608 74.7271 119.084 76.487 118.436 78.2023C118.587 79.2015 119.239 80.0889 120.447 81.014C121.485 81.8085 122.904 82.5022 124.476 83.0116C124.043 84.269 123.544 85.4983 122.994 86.7031C121.174 86.0945 119.475 85.2504 118.046 84.1564C117.45 83.7015 116.905 83.1847 116.418 82.6146C115.569 84.1858 114.615 85.6724 113.56 87.0602C113.4 88.2631 113.863 89.4951 114.93 90.8909C115.812 92.0461 117.113 93.192 118.628 94.1855C117.845 95.2619 117.013 96.2952 116.14 97.2946C114.449 96.1523 112.947 94.8093 111.788 93.2923C111.187 92.5059 110.68 91.6458 110.306 90.7384C108.885 92.1098 107.347 93.3287 105.708 94.377C104.957 95.6965 105.034 97.2487 105.84 99.2062C106.472 100.741 107.595 102.389 108.996 103.91C107.923 104.709 106.815 105.459 105.675 106.159C104.193 104.482 102.975 102.641 102.182 100.714C101.65 99.4217 101.325 98.0421 101.289 96.6727C99.6893 97.3267 98.0299 97.823 96.334 98.1545C95.5141 99.2723 95.284 100.763 95.5338 102.693C95.8147 104.865 96.8209 107.42 98.2788 109.771C95.3206 110.865 92.2894 111.589 89.2687 111.875L89.6391 115.818C93.4158 115.461 97.1641 114.523 100.773 113.086C102.308 114.785 104.024 116.165 105.648 116.955C106.93 117.579 108.063 117.872 109.109 117.782C111.879 116.623 114.527 115.192 117.014 113.509C114.072 112.764 111.179 111.118 108.645 109.023C109.797 108.281 110.919 107.479 112.013 106.635C114.168 108.245 116.555 109.414 118.588 109.81C119.87 110.061 120.936 110.061 121.836 109.758C124.631 107.261 127.11 104.433 129.219 101.336C126.106 101.532 122.757 100.694 119.673 99.2723C120.545 98.2322 121.381 97.1574 122.167 96.0439C124.558 97.0198 127.065 97.5228 129.034 97.3865C130.382 97.2934 131.398 96.9944 132.15 96.4008C133.682 93.4088 134.878 90.2561 135.715 87.0003C135.645 87.0264 135.575 87.0554 135.504 87.0797C132.888 87.9788 129.868 88.0795 126.91 87.6354C127.449 86.3881 127.93 85.1165 128.352 83.8249C130.519 84.0423 132.648 83.8736 134.214 83.3352C135.434 82.9161 136.257 82.3921 136.747 81.655C137.17 78.4331 137.246 75.175 136.973 71.9369C136.964 71.9429 136.955 71.9507 136.946 71.9568C135.047 73.2075 132.719 73.9643 130.304 74.3185C130.423 72.9844 130.485 71.6327 130.476 70.2698C132.153 69.9349 133.696 69.3559 134.769 68.6489C135.53 68.148 136.028 67.6742 136.311 67.1602C135.701 63.9864 134.749 60.8879 133.473 57.9187C132.341 59.0978 130.904 60.0272 129.331 60.7436C129.023 59.4378 128.657 58.1464 128.233 56.8733C129.25 56.3414 130.126 55.7166 130.687 55.1135C131.156 54.6105 131.408 54.235 131.495 53.8899C130.237 51.6212 128.79 49.4634 127.168 47.4396C126.608 48.2432 125.912 48.9595 125.137 49.6031C124.511 48.4049 123.84 47.2309 123.126 46.0835C123.593 45.6249 123.963 45.1605 124.178 44.7731C124.292 44.5677 124.372 44.4225 124.422 44.3035C123.975 43.84 123.519 43.3856 123.053 42.9408C119.477 40.3167 116.574 39.0039 112.865 37.8079Z"/>
</mask>
<path d="M61.1321 37.8079C57.4227 39.0039 54.5204 40.3173 50.9442 42.9415C50.4805 43.3841 50.026 43.8363 49.5809 44.2976C49.6317 44.4174 49.71 44.5654 49.8258 44.7739C50.0409 45.1617 50.4116 45.6256 50.878 46.0843C50.1633 47.2315 49.4924 48.4054 48.8669 49.6035C48.0912 48.96 47.3952 48.2438 46.8359 47.44C45.214 49.4618 43.7666 51.6175 42.5092 53.884C42.5929 54.2303 42.8388 54.608 43.3094 55.1139C43.8717 55.7179 44.75 56.3418 45.7706 56.874C45.3421 58.1689 44.9746 59.4575 44.6728 60.7438C43.0977 60.0282 41.6572 59.0993 40.5248 57.9191C39.2482 60.8883 38.2966 63.9869 37.6868 67.1609C37.9694 67.6761 38.4731 68.148 39.2347 68.6495C40.3085 69.3566 41.8513 69.9358 43.5283 70.2705C43.5188 71.6332 43.5813 72.9848 43.7002 74.3189C41.2854 73.9648 38.9572 73.208 37.0583 71.9573C37.0477 71.9501 37.0359 71.9446 37.0253 71.9374C36.7541 75.1757 36.8317 78.4337 37.2567 81.6554C37.7457 82.3921 38.5641 82.9165 39.7837 83.3359C41.3515 83.8748 43.4824 84.0438 45.6518 83.8253C46.0752 85.1213 46.5568 86.3932 47.0935 87.6358C44.1361 88.08 41.1159 87.9792 38.5002 87.0801C38.4288 87.0556 38.3594 87.0268 38.2885 87.0007C39.1258 90.2565 40.3217 93.4093 41.8542 96.4013C42.6064 96.9949 43.6219 97.2938 44.9704 97.3869C46.9392 97.5233 49.4465 97.0207 51.8374 96.0441C52.6213 97.1544 53.4511 98.2314 54.3248 99.2725C51.2404 100.694 47.8977 101.532 44.7852 101.337C46.8923 104.431 49.3694 107.257 52.1615 109.751C53.0633 110.058 54.1302 110.062 55.4161 109.811C57.4484 109.414 59.831 108.243 61.985 106.635C61.9867 106.636 61.9905 106.634 61.9918 106.635C63.08 107.476 64.2034 108.271 65.359 109.017C62.8237 111.115 59.9343 112.763 56.9907 113.509C59.4776 115.192 62.1258 116.623 64.896 117.782C65.9411 117.872 67.0743 117.579 68.3559 116.955C69.9801 116.165 71.6965 114.785 73.2313 113.086C76.8377 114.522 80.5839 115.461 84.3586 115.818L84.7354 111.875C81.715 111.589 78.6843 110.865 75.7253 109.771C77.1824 107.419 78.183 104.865 78.4646 102.692C78.714 100.763 78.4822 99.2721 77.664 98.1541C75.9535 97.8196 74.3001 97.32 72.7156 96.6722C72.6792 98.0419 72.3544 99.4215 71.8222 100.714C71.0294 102.641 69.8069 104.482 68.3229 106.159C67.1852 105.459 66.0792 104.709 65.0084 103.91C66.4098 102.389 67.5324 100.741 68.1639 99.206C68.9696 97.2487 69.0473 95.6965 68.2962 94.3773C66.656 93.3279 65.1202 92.1043 63.6987 90.7319C63.3233 91.6422 62.8123 92.5038 62.21 93.2921C61.0508 94.8089 59.5486 96.1521 57.8569 97.2942C56.9847 96.295 56.1524 95.2613 55.3695 94.1848C56.8835 93.1911 58.1842 92.0467 59.0678 90.8904C60.1343 89.4945 60.5963 88.2633 60.4371 87.06C59.3715 85.6539 58.416 84.1676 57.5792 82.6144C57.0948 83.1842 56.5515 83.701 55.9582 84.1562C54.5276 85.2517 52.8256 86.0943 51.0033 86.7029C50.4539 85.4983 49.9539 84.2688 49.5214 83.0116C51.0937 82.5024 52.5127 81.8085 53.55 81.0138C54.7558 80.0904 55.4133 79.2049 55.5679 78.2088C54.9189 76.4913 54.3949 74.729 54 72.9359C53.6047 73.1636 53.1935 73.3626 52.7697 73.5314C51.1925 74.1553 49.4355 74.4701 47.6297 74.537C47.4869 73.2208 47.4139 71.898 47.411 70.574C48.8838 70.5184 50.2613 70.2698 51.3147 69.8532C52.2885 69.4679 52.9225 69.0488 53.2926 68.5301C53.0716 66.434 53.0141 64.3239 53.1205 62.2189C52.9829 62.2409 52.8474 62.257 52.7102 62.2718C51.3079 62.4253 49.8404 62.3035 48.3903 61.9875C48.6804 60.7215 49.0402 59.445 49.4687 58.1636C50.4997 58.3611 51.4879 58.4225 52.28 58.3359C52.8334 58.2754 53.2394 58.1759 53.5502 58.0383C53.841 56.1738 54.2633 54.3323 54.814 52.5275C53.9287 52.3716 53.0603 52.0846 52.2208 51.7071C52.8341 50.5239 53.494 49.3654 54.1988 48.2343C54.7099 48.4381 55.1972 48.5867 55.6144 48.6513C55.8488 48.6873 56.0427 48.7074 56.2034 48.7106C56.6153 47.7283 57.0548 46.7693 57.5332 45.8394C58.7818 43.3409 60.1614 40.7053 61.1321 37.8079ZM112.865 37.8079C113.835 40.7051 115.215 43.3405 116.464 45.8392C116.946 46.7783 117.392 47.7361 117.8 48.7102C117.959 48.7068 118.151 48.6862 118.382 48.6509C118.801 48.5861 119.291 48.4392 119.804 48.2338C120.509 49.365 121.169 50.5236 121.783 51.7069C120.941 52.085 120.069 52.3716 119.183 52.5275C119.725 54.3036 120.151 56.1474 120.446 58.0379C120.758 58.1772 121.167 58.275 121.723 58.3359C122.515 58.4227 123.504 58.3613 124.535 58.1638C124.954 59.4226 125.312 60.7009 125.606 61.9945C124.159 62.3093 122.693 62.4255 121.293 62.2724C121.154 62.2581 121.015 62.2405 120.877 62.2195C120.985 64.3243 120.93 66.4343 120.711 68.5306C121.082 69.0492 121.716 69.4684 122.689 69.8536C123.741 70.2696 125.116 70.5184 126.586 70.5747C126.583 71.8986 126.51 73.2214 126.368 74.5376C124.564 74.4699 122.81 74.1549 121.234 73.5321C120.811 73.3626 120.399 73.1635 120.004 72.9363C119.608 74.7271 119.084 76.487 118.436 78.2023C118.587 79.2015 119.239 80.0889 120.447 81.014C121.485 81.8085 122.904 82.5022 124.476 83.0116C124.043 84.269 123.544 85.4983 122.994 86.7031C121.174 86.0945 119.475 85.2504 118.046 84.1564C117.45 83.7015 116.905 83.1847 116.418 82.6146C115.569 84.1858 114.615 85.6724 113.56 87.0602C113.4 88.2631 113.863 89.4951 114.93 90.8909C115.812 92.0461 117.113 93.192 118.628 94.1855C117.845 95.2619 117.013 96.2952 116.14 97.2946C114.449 96.1523 112.947 94.8093 111.788 93.2923C111.187 92.5059 110.68 91.6458 110.306 90.7384C108.885 92.1098 107.347 93.3287 105.708 94.377C104.957 95.6965 105.034 97.2487 105.84 99.2062C106.472 100.741 107.595 102.389 108.996 103.91C107.923 104.709 106.815 105.459 105.675 106.159C104.193 104.482 102.975 102.641 102.182 100.714C101.65 99.4217 101.325 98.0421 101.289 96.6727C99.6893 97.3267 98.0299 97.823 96.334 98.1545C95.5141 99.2723 95.284 100.763 95.5338 102.693C95.8147 104.865 96.8209 107.42 98.2788 109.771C95.3206 110.865 92.2894 111.589 89.2687 111.875L89.6391 115.818C93.4158 115.461 97.1641 114.523 100.773 113.086C102.308 114.785 104.024 116.165 105.648 116.955C106.93 117.579 108.063 117.872 109.109 117.782C111.879 116.623 114.527 115.192 117.014 113.509C114.072 112.764 111.179 111.118 108.645 109.023C109.797 108.281 110.919 107.479 112.013 106.635C114.168 108.245 116.555 109.414 118.588 109.81C119.87 110.061 120.936 110.061 121.836 109.758C124.631 107.261 127.11 104.433 129.219 101.336C126.106 101.532 122.757 100.694 119.673 99.2723C120.545 98.2322 121.381 97.1574 122.167 96.0439C124.558 97.0198 127.065 97.5228 129.034 97.3865C130.382 97.2934 131.398 96.9944 132.15 96.4008C133.682 93.4088 134.878 90.2561 135.715 87.0003C135.645 87.0264 135.575 87.0554 135.504 87.0797C132.888 87.9788 129.868 88.0795 126.91 87.6354C127.449 86.3881 127.93 85.1165 128.352 83.8249C130.519 84.0423 132.648 83.8736 134.214 83.3352C135.434 82.9161 136.257 82.3921 136.747 81.655C137.17 78.4331 137.246 75.175 136.973 71.9369C136.964 71.9429 136.955 71.9507 136.946 71.9568C135.047 73.2075 132.719 73.9643 130.304 74.3185C130.423 72.9844 130.485 71.6327 130.476 70.2698C132.153 69.9349 133.696 69.3559 134.769 68.6489C135.53 68.148 136.028 67.6742 136.311 67.1602C135.701 63.9864 134.749 60.8879 133.473 57.9187C132.341 59.0978 130.904 60.0272 129.331 60.7436C129.023 59.4378 128.657 58.1464 128.233 56.8733C129.25 56.3414 130.126 55.7166 130.687 55.1135C131.156 54.6105 131.408 54.235 131.495 53.8899C130.237 51.6212 128.79 49.4634 127.168 47.4396C126.608 48.2432 125.912 48.9595 125.137 49.6031C124.511 48.4049 123.84 47.2309 123.126 46.0835C123.593 45.6249 123.963 45.1605 124.178 44.7731C124.292 44.5677 124.372 44.4225 124.422 44.3035C123.975 43.84 123.519 43.3856 123.053 42.9408C119.477 40.3167 116.574 39.0039 112.865 37.8079Z" fill="#202020"/>
<path d="M61.1321 37.8079C57.4227 39.0039 54.5204 40.3173 50.9442 42.9415C50.4805 43.3841 50.026 43.8363 49.5809 44.2976C49.6317 44.4174 49.71 44.5654 49.8258 44.7739C50.0409 45.1617 50.4116 45.6256 50.878 46.0843C50.1633 47.2315 49.4924 48.4054 48.8669 49.6035C48.0912 48.96 47.3952 48.2438 46.8359 47.44C45.214 49.4618 43.7666 51.6175 42.5092 53.884C42.5929 54.2303 42.8388 54.608 43.3094 55.1139C43.8717 55.7179 44.75 56.3418 45.7706 56.874C45.3421 58.1689 44.9746 59.4575 44.6728 60.7438C43.0977 60.0282 41.6572 59.0993 40.5248 57.9191C39.2482 60.8883 38.2966 63.9869 37.6868 67.1609C37.9694 67.6761 38.4731 68.148 39.2347 68.6495C40.3085 69.3566 41.8513 69.9358 43.5283 70.2705C43.5188 71.6332 43.5813 72.9848 43.7002 74.3189C41.2854 73.9648 38.9572 73.208 37.0583 71.9573C37.0477 71.9501 37.0359 71.9446 37.0253 71.9374C36.7541 75.1757 36.8317 78.4337 37.2567 81.6554C37.7457 82.3921 38.5641 82.9165 39.7837 83.3359C41.3515 83.8748 43.4824 84.0438 45.6518 83.8253C46.0752 85.1213 46.5568 86.3932 47.0935 87.6358C44.1361 88.08 41.1159 87.9792 38.5002 87.0801C38.4288 87.0556 38.3594 87.0268 38.2885 87.0007C39.1258 90.2565 40.3217 93.4093 41.8542 96.4013C42.6064 96.9949 43.6219 97.2938 44.9704 97.3869C46.9392 97.5233 49.4465 97.0207 51.8374 96.0441C52.6213 97.1544 53.4511 98.2314 54.3248 99.2725C51.2404 100.694 47.8977 101.532 44.7852 101.337C46.8923 104.431 49.3694 107.257 52.1615 109.751C53.0633 110.058 54.1302 110.062 55.4161 109.811C57.4484 109.414 59.831 108.243 61.985 106.635C61.9867 106.636 61.9905 106.634 61.9918 106.635C63.08 107.476 64.2034 108.271 65.359 109.017C62.8237 111.115 59.9343 112.763 56.9907 113.509C59.4776 115.192 62.1258 116.623 64.896 117.782C65.9411 117.872 67.0743 117.579 68.3559 116.955C69.9801 116.165 71.6965 114.785 73.2313 113.086C76.8377 114.522 80.5839 115.461 84.3586 115.818L84.7354 111.875C81.715 111.589 78.6843 110.865 75.7253 109.771C77.1824 107.419 78.183 104.865 78.4646 102.692C78.714 100.763 78.4822 99.2721 77.664 98.1541C75.9535 97.8196 74.3001 97.32 72.7156 96.6722C72.6792 98.0419 72.3544 99.4215 71.8222 100.714C71.0294 102.641 69.8069 104.482 68.3229 106.159C67.1852 105.459 66.0792 104.709 65.0084 103.91C66.4098 102.389 67.5324 100.741 68.1639 99.206C68.9696 97.2487 69.0473 95.6965 68.2962 94.3773C66.656 93.3279 65.1202 92.1043 63.6987 90.7319C63.3233 91.6422 62.8123 92.5038 62.21 93.2921C61.0508 94.8089 59.5486 96.1521 57.8569 97.2942C56.9847 96.295 56.1524 95.2613 55.3695 94.1848C56.8835 93.1911 58.1842 92.0467 59.0678 90.8904C60.1343 89.4945 60.5963 88.2633 60.4371 87.06C59.3715 85.6539 58.416 84.1676 57.5792 82.6144C57.0948 83.1842 56.5515 83.701 55.9582 84.1562C54.5276 85.2517 52.8256 86.0943 51.0033 86.7029C50.4539 85.4983 49.9539 84.2688 49.5214 83.0116C51.0937 82.5024 52.5127 81.8085 53.55 81.0138C54.7558 80.0904 55.4133 79.2049 55.5679 78.2088C54.9189 76.4913 54.3949 74.729 54 72.9359C53.6047 73.1636 53.1935 73.3626 52.7697 73.5314C51.1925 74.1553 49.4355 74.4701 47.6297 74.537C47.4869 73.2208 47.4139 71.898 47.411 70.574C48.8838 70.5184 50.2613 70.2698 51.3147 69.8532C52.2885 69.4679 52.9225 69.0488 53.2926 68.5301C53.0716 66.434 53.0141 64.3239 53.1205 62.2189C52.9829 62.2409 52.8474 62.257 52.7102 62.2718C51.3079 62.4253 49.8404 62.3035 48.3903 61.9875C48.6804 60.7215 49.0402 59.445 49.4687 58.1636C50.4997 58.3611 51.4879 58.4225 52.28 58.3359C52.8334 58.2754 53.2394 58.1759 53.5502 58.0383C53.841 56.1738 54.2633 54.3323 54.814 52.5275C53.9287 52.3716 53.0603 52.0846 52.2208 51.7071C52.8341 50.5239 53.494 49.3654 54.1988 48.2343C54.7099 48.4381 55.1972 48.5867 55.6144 48.6513C55.8488 48.6873 56.0427 48.7074 56.2034 48.7106C56.6153 47.7283 57.0548 46.7693 57.5332 45.8394C58.7818 43.3409 60.1614 40.7053 61.1321 37.8079ZM112.865 37.8079C113.835 40.7051 115.215 43.3405 116.464 45.8392C116.946 46.7783 117.392 47.7361 117.8 48.7102C117.959 48.7068 118.151 48.6862 118.382 48.6509C118.801 48.5861 119.291 48.4392 119.804 48.2338C120.509 49.365 121.169 50.5236 121.783 51.7069C120.941 52.085 120.069 52.3716 119.183 52.5275C119.725 54.3036 120.151 56.1474 120.446 58.0379C120.758 58.1772 121.167 58.275 121.723 58.3359C122.515 58.4227 123.504 58.3613 124.535 58.1638C124.954 59.4226 125.312 60.7009 125.606 61.9945C124.159 62.3093 122.693 62.4255 121.293 62.2724C121.154 62.2581 121.015 62.2405 120.877 62.2195C120.985 64.3243 120.93 66.4343 120.711 68.5306C121.082 69.0492 121.716 69.4684 122.689 69.8536C123.741 70.2696 125.116 70.5184 126.586 70.5747C126.583 71.8986 126.51 73.2214 126.368 74.5376C124.564 74.4699 122.81 74.1549 121.234 73.5321C120.811 73.3626 120.399 73.1635 120.004 72.9363C119.608 74.7271 119.084 76.487 118.436 78.2023C118.587 79.2015 119.239 80.0889 120.447 81.014C121.485 81.8085 122.904 82.5022 124.476 83.0116C124.043 84.269 123.544 85.4983 122.994 86.7031C121.174 86.0945 119.475 85.2504 118.046 84.1564C117.45 83.7015 116.905 83.1847 116.418 82.6146C115.569 84.1858 114.615 85.6724 113.56 87.0602C113.4 88.2631 113.863 89.4951 114.93 90.8909C115.812 92.0461 117.113 93.192 118.628 94.1855C117.845 95.2619 117.013 96.2952 116.14 97.2946C114.449 96.1523 112.947 94.8093 111.788 93.2923C111.187 92.5059 110.68 91.6458 110.306 90.7384C108.885 92.1098 107.347 93.3287 105.708 94.377C104.957 95.6965 105.034 97.2487 105.84 99.2062C106.472 100.741 107.595 102.389 108.996 103.91C107.923 104.709 106.815 105.459 105.675 106.159C104.193 104.482 102.975 102.641 102.182 100.714C101.65 99.4217 101.325 98.0421 101.289 96.6727C99.6893 97.3267 98.0299 97.823 96.334 98.1545C95.5141 99.2723 95.284 100.763 95.5338 102.693C95.8147 104.865 96.8209 107.42 98.2788 109.771C95.3206 110.865 92.2894 111.589 89.2687 111.875L89.6391 115.818C93.4158 115.461 97.1641 114.523 100.773 113.086C102.308 114.785 104.024 116.165 105.648 116.955C106.93 117.579 108.063 117.872 109.109 117.782C111.879 116.623 114.527 115.192 117.014 113.509C114.072 112.764 111.179 111.118 108.645 109.023C109.797 108.281 110.919 107.479 112.013 106.635C114.168 108.245 116.555 109.414 118.588 109.81C119.87 110.061 120.936 110.061 121.836 109.758C124.631 107.261 127.11 104.433 129.219 101.336C126.106 101.532 122.757 100.694 119.673 99.2723C120.545 98.2322 121.381 97.1574 122.167 96.0439C124.558 97.0198 127.065 97.5228 129.034 97.3865C130.382 97.2934 131.398 96.9944 132.15 96.4008C133.682 93.4088 134.878 90.2561 135.715 87.0003C135.645 87.0264 135.575 87.0554 135.504 87.0797C132.888 87.9788 129.868 88.0795 126.91 87.6354C127.449 86.3881 127.93 85.1165 128.352 83.8249C130.519 84.0423 132.648 83.8736 134.214 83.3352C135.434 82.9161 136.257 82.3921 136.747 81.655C137.17 78.4331 137.246 75.175 136.973 71.9369C136.964 71.9429 136.955 71.9507 136.946 71.9568C135.047 73.2075 132.719 73.9643 130.304 74.3185C130.423 72.9844 130.485 71.6327 130.476 70.2698C132.153 69.9349 133.696 69.3559 134.769 68.6489C135.53 68.148 136.028 67.6742 136.311 67.1602C135.701 63.9864 134.749 60.8879 133.473 57.9187C132.341 59.0978 130.904 60.0272 129.331 60.7436C129.023 59.4378 128.657 58.1464 128.233 56.8733C129.25 56.3414 130.126 55.7166 130.687 55.1135C131.156 54.6105 131.408 54.235 131.495 53.8899C130.237 51.6212 128.79 49.4634 127.168 47.4396C126.608 48.2432 125.912 48.9595 125.137 49.6031C124.511 48.4049 123.84 47.2309 123.126 46.0835C123.593 45.6249 123.963 45.1605 124.178 44.7731C124.292 44.5677 124.372 44.4225 124.422 44.3035C123.975 43.84 123.519 43.3856 123.053 42.9408C119.477 40.3167 116.574 39.0039 112.865 37.8079Z" stroke="#2E2E2E" stroke-width="2" mask="url(#path-10-inside-1_1448_281)"/>
</g>
<rect x="40.2892" y="86.9583" width="66" height="66" rx="11" transform="rotate(-45 40.2892 86.9583)" fill="#222222"/>
<rect x="40.2892" y="86.9583" width="66" height="66" rx="11" transform="rotate(-45 40.2892 86.9583)" stroke="#4F4F4F" stroke-width="2"/>
<g clip-path="url(#clip0_1448_281)">
<rect x="78.9583" y="41.7034" width="16" height="45.2549" fill="url(#paint8_linear_1448_281)" fill-opacity="0.1"/>
<rect width="16" height="45.2549" transform="matrix(1 0 0 -1 78.9583 132.213)" fill="url(#paint9_linear_1448_281)" fill-opacity="0.1"/>
<rect x="41.7034" y="94.9583" width="16" height="45.2549" transform="rotate(-90 41.7034 94.9583)" fill="url(#paint10_linear_1448_281)" fill-opacity="0.1"/>
<rect width="16" height="45.2549" transform="matrix(0 -1 -1 0 132.213 94.9583)" fill="url(#paint11_linear_1448_281)" fill-opacity="0.1"/>
</g>
<rect x="113.302" y="49.3013" width="16" height="45.2549" transform="rotate(45 113.302 49.3013)" fill="url(#paint12_linear_1448_281)" fill-opacity="0.04"/>
<rect width="16" height="45.2549" transform="matrix(0.707107 0.707107 0.707107 -0.707107 49.3014 113.301)" fill="url(#paint13_linear_1448_281)" fill-opacity="0.04"/>
<rect x="49.3014" y="60.615" width="16" height="45.2549" transform="rotate(-45 49.3014 60.615)" fill="url(#paint14_linear_1448_281)" fill-opacity="0.04"/>
<rect width="16" height="45.2549" transform="matrix(0.707107 -0.707107 -0.707107 -0.707107 113.301 124.615)" fill="url(#paint15_linear_1448_281)" fill-opacity="0.04"/>
<g clip-path="url(#clip1_1448_281)">
<g filter="url(#filter2_d_1448_281)">
<path d="M85.2915 98.3494V85.836C82.2271 85.6094 79.5615 84.4994 77.2948 82.506C75.0282 80.5127 73.6082 78.0038 73.0348 74.9794C69.5082 74.5638 66.5026 73.1183 64.0182 70.6427C61.5337 68.1671 60.2915 65.1805 60.2915 61.6827V60.3994C60.2915 58.9194 60.8193 57.6527 61.8748 56.5994C62.9304 55.546 64.1971 55.0183 65.6748 55.016H72.4715V53.7327C72.4715 52.2527 72.9982 50.986 74.0515 49.9327C75.1071 48.8771 76.376 48.3494 77.8582 48.3494H96.0648C97.5448 48.3494 98.8115 48.8771 99.8648 49.9327C100.92 50.986 101.448 52.2527 101.448 53.7327V55.016H108.245C109.725 55.016 110.992 55.5438 112.045 56.5994C113.098 57.6549 113.625 58.9216 113.625 60.3994V61.6827C113.625 65.1783 112.383 68.1649 109.898 70.6427C107.414 73.1205 104.408 74.5649 100.882 74.976C100.308 78.0027 98.8882 80.5127 96.6215 82.506C94.3548 84.4994 91.6893 85.6105 88.6248 85.8394V98.3494H97.3448C97.816 98.3494 98.2115 98.5094 98.5315 98.8294C98.8515 99.1494 99.0115 99.546 99.0115 100.019C99.0115 100.493 98.8515 100.888 98.5315 101.206C98.2115 101.524 97.816 101.683 97.3448 101.683H76.5748C76.1015 101.683 75.7048 101.523 75.3848 101.203C75.0648 100.883 74.9059 100.486 74.9082 100.013C74.9104 99.5394 75.0693 99.1438 75.3848 98.826C75.7004 98.5083 76.0971 98.3494 76.5748 98.3494H85.2915ZM72.4715 71.4027V58.3494H65.6748C65.0771 58.3494 64.5859 58.5416 64.2015 58.926C63.8171 59.3105 63.6248 59.8027 63.6248 60.4027V61.6827C63.6248 64.1783 64.4715 66.3483 66.1648 68.1927C67.8559 70.0371 69.9582 71.1071 72.4715 71.4027ZM86.9715 82.5794H86.9732C90.0391 82.579 92.6408 81.5068 94.7782 79.3627C96.9159 77.2205 97.9848 74.6171 97.9848 71.5527V53.736C97.9848 53.136 97.7915 52.6438 97.4048 52.2594C97.0226 51.8749 96.5315 51.6827 95.9315 51.6827H77.9848C77.3848 51.6827 76.8937 51.8749 76.5115 52.2594C76.1248 52.6438 75.9315 53.136 75.9315 53.736V71.556C75.9315 74.6183 77.0048 77.2216 79.1515 79.366C81.3 81.5079 83.9072 82.579 86.9732 82.5794H86.9748M101.445 71.4027C103.958 71.1071 106.062 70.0371 107.755 68.1927C109.446 66.3483 110.292 64.1783 110.292 61.6827V60.3994C110.292 59.8016 110.099 59.3105 109.715 58.926C109.33 58.5416 108.839 58.3494 108.242 58.3494H101.445V71.4027Z" fill="url(#paint16_linear_1448_281)"/>
<path d="M86.9732 82.5794C90.0391 82.579 92.6408 81.5068 94.7782 79.3627C96.9159 77.2205 97.9848 74.6171 97.9848 71.5527V53.736C97.9848 53.136 97.7915 52.6438 97.4048 52.2594C97.0226 51.8749 96.5315 51.6827 95.9315 51.6827H77.9848C77.3848 51.6827 76.8937 51.8749 76.5115 52.2594C76.1248 52.6438 75.9315 53.136 75.9315 53.736V71.556C75.9315 74.6183 77.0048 77.2216 79.1515 79.366C81.3 81.5079 83.9072 82.579 86.9732 82.5794Z" fill="url(#paint17_linear_1448_281)"/>
</g>
</g>
<g filter="url(#filter3_i_1448_281)">
<path d="M86.9582 69.4315L84.216 71.0835C84.0948 71.1606 83.9682 71.1937 83.836 71.1826C83.7038 71.1716 83.5882 71.1276 83.4891 71.0505C83.39 70.9734 83.3129 70.8771 83.2578 70.7617C83.2027 70.6463 83.1917 70.5168 83.2248 70.3732L83.9516 67.2509L81.5232 65.1529C81.4131 65.0538 81.3444 64.9408 81.317 64.8139C81.2897 64.687 81.2979 64.5633 81.3415 64.4425C81.3851 64.3218 81.4512 64.2227 81.5397 64.1452C81.6283 64.0677 81.7494 64.0181 81.9032 63.9965L85.108 63.7157L86.347 60.7751C86.4021 60.643 86.4875 60.5439 86.6034 60.4778C86.7193 60.4117 86.8375 60.3787 86.9582 60.3787C87.079 60.3787 87.1972 60.4117 87.3131 60.4778C87.429 60.5439 87.5144 60.643 87.5695 60.7751L88.8085 63.7157L92.0133 63.9965C92.1675 64.0185 92.2887 64.0681 92.3768 64.1452C92.4649 64.2223 92.5309 64.3214 92.575 64.4425C92.619 64.5637 92.6274 64.6877 92.6001 64.8146C92.5728 64.9414 92.5039 65.0542 92.3933 65.1529L89.9649 67.2509L90.6917 70.3732C90.7248 70.5163 90.7138 70.6459 90.6587 70.7617C90.6036 70.8776 90.5265 70.9738 90.4274 71.0505C90.3283 71.1271 90.2127 71.1712 90.0805 71.1826C89.9483 71.1941 89.8217 71.1611 89.7005 71.0835L86.9582 69.4315Z" fill="black"/>
</g>
<g filter="url(#filter4_d_1448_281)">
<rect x="52" y="88.615" width="70" height="19" rx="9.5" fill="#202020" shape-rendering="crispEdges"/>
<rect x="52.5" y="89.115" width="69" height="18" rx="9" stroke="#2E2E2E" shape-rendering="crispEdges"/>
<path d="M73.3512 94.194L74.0352 102.594H72.6552L72.1032 95.514H70.7832L67.7952 102.594H66.3552L69.9312 94.194H73.3512ZM76.581 100.794L81.513 94.194H83.373L81.897 102.594H80.517L81.489 97.074L81.801 95.994H81.681L76.737 102.594H74.877L76.353 94.194H77.733L76.761 99.714L76.461 100.794H76.581ZM90.5809 94.194L91.1329 101.274H92.0929L91.5889 104.154H90.2689L90.5449 102.594H84.2449L83.9689 104.154H82.6489L83.1529 101.274H84.1129L87.1609 94.194H90.5809ZM87.9889 95.514L85.5289 101.274H89.7289L89.3089 95.514H87.9889ZM94.239 101.274H98.919L98.691 102.594H92.631L94.107 94.194H100.167L99.939 95.514H95.259L94.875 97.674H98.655L98.427 98.994H94.647L94.239 101.274ZM104.732 95.514H102.56L102.032 98.514H104.612C105.18 98.514 105.62 98.366 105.932 98.07C106.252 97.766 106.412 97.358 106.412 96.846C106.412 96.462 106.264 96.146 105.968 95.898C105.672 95.642 105.26 95.514 104.732 95.514ZM101.408 94.194H104.852C105.724 94.194 106.44 94.446 107 94.95C107.568 95.454 107.852 96.062 107.852 96.774C107.852 97.63 107.536 98.354 106.904 98.946C106.272 99.538 105.468 99.834 104.492 99.834H101.804L101.312 102.594H99.9317L101.408 94.194Z" fill="white"/>
</g>
<g filter="url(#filter5_d_1448_281)">
<rect x="67" y="106.615" width="40" height="18" rx="9" fill="#222222" shape-rendering="crispEdges"/>
<rect x="67.5" y="107.115" width="39" height="17" rx="8.5" stroke="#E3E3E3" shape-rendering="crispEdges"/>
<path d="M90.4833 117.535H86.4233L86.6613 116.205H90.7213L90.4833 117.535ZM89.1813 114.035C89.4987 114.035 89.76 113.928 89.9653 113.713C90.18 113.489 90.2873 113.2 90.2873 112.845C90.2873 112.556 90.2033 112.332 90.0353 112.173C89.8673 112.014 89.62 111.935 89.2933 111.935C88.976 111.935 88.71 112.047 88.4953 112.271C88.29 112.486 88.1873 112.77 88.1873 113.125C88.1873 113.414 88.2713 113.638 88.4393 113.797C88.6073 113.956 88.8547 114.035 89.1813 114.035ZM89.0273 115.295C88.3927 115.295 87.87 115.094 87.4593 114.693C87.058 114.292 86.8573 113.792 86.8573 113.195C86.8573 112.523 87.114 111.935 87.6273 111.431C88.1407 110.927 88.7473 110.675 89.4473 110.675C90.082 110.675 90.6 110.876 91.0013 111.277C91.412 111.678 91.6173 112.178 91.6173 112.775C91.6173 113.447 91.3607 114.035 90.8473 114.539C90.334 115.043 89.7273 115.295 89.0273 115.295ZM82.4473 120.615L79.4093 112.845H79.2693L79.1993 114.035L78.0373 120.615H76.4273L78.1493 110.815H80.3193L83.3713 118.585H83.5113L83.5813 117.395L84.7293 110.815H86.3393L84.6173 120.615H82.4473ZM95.7501 117.899L94.3081 118.795L93.6361 119.075V119.145L94.4761 119.075H98.2561L97.9901 120.615H90.9201L91.1861 119.075L94.8821 116.751C95.8807 116.126 96.5761 115.598 96.9681 115.169C97.3694 114.73 97.5701 114.212 97.5701 113.615C97.5701 113.176 97.4161 112.812 97.1081 112.523C96.8094 112.224 96.4034 112.075 95.8901 112.075C95.2367 112.075 94.6954 112.355 94.2661 112.915C94.0794 113.139 93.9207 113.419 93.7901 113.755H92.1101C92.2594 113.167 92.5067 112.63 92.8521 112.145C93.6267 111.072 94.6627 110.535 95.9601 110.535C96.9494 110.535 97.7427 110.81 98.3401 111.361C98.9467 111.912 99.2501 112.616 99.2501 113.475C99.2501 114.352 98.9841 115.113 98.4521 115.757C97.9294 116.392 97.0287 117.106 95.7501 117.899Z" fill="#E3E3E3"/>
</g>
<defs>
<filter id="filter0_f_1448_281" x="0.922974" y="0.923096" width="172.07" height="172.07" filterUnits="userSpaceOnUse" color-interpolation-filters="sRGB">
<feFlood flood-opacity="0" result="BackgroundImageFix"/>
<feBlend mode="normal" in="SourceGraphic" in2="BackgroundImageFix" result="shape"/>
<feGaussianBlur stdDeviation="15" result="effect1_foregroundBlur_1448_281"/>
</filter>
<filter id="filter1_d_1448_281" x="32.8671" y="34.8079" width="108.266" height="87.9902" filterUnits="userSpaceOnUse" color-interpolation-filters="sRGB">
<feFlood flood-opacity="0" result="BackgroundImageFix"/>
<feColorMatrix in="SourceAlpha" type="matrix" values="0 0 0 0 0 0 0 0 0 0 0 0 0 0 0 0 0 0 127 0" result="hardAlpha"/>
<feOffset dy="1"/>
<feGaussianBlur stdDeviation="2"/>
<feComposite in2="hardAlpha" operator="out"/>
<feColorMatrix type="matrix" values="0 0 0 0 0 0 0 0 0 0 0 0 0 0 0 0 0 0 0.1 0"/>
<feBlend mode="normal" in2="BackgroundImageFix" result="effect1_dropShadow_1448_281"/>
<feBlend mode="normal" in="SourceGraphic" in2="effect1_dropShadow_1448_281" result="shape"/>
</filter>
<filter id="filter2_d_1448_281" x="50.2915" y="42.3494" width="73.3334" height="73.3333" filterUnits="userSpaceOnUse" color-interpolation-filters="sRGB">
<feFlood flood-opacity="0" result="BackgroundImageFix"/>
<feColorMatrix in="SourceAlpha" type="matrix" values="0 0 0 0 0 0 0 0 0 0 0 0 0 0 0 0 0 0 127 0" result="hardAlpha"/>
<feOffset dy="4"/>
<feGaussianBlur stdDeviation="5"/>
<feComposite in2="hardAlpha" operator="out"/>
<feColorMatrix type="matrix" values="0 0 0 0 0 0 0 0 0 0 0 0 0 0 0 0 0 0 1 0"/>
<feBlend mode="normal" in2="BackgroundImageFix" result="effect1_dropShadow_1448_281"/>
<feBlend mode="normal" in="SourceGraphic" in2="effect1_dropShadow_1448_281" result="shape"/>
</filter>
<filter id="filter3_i_1448_281" x="81.3013" y="60.3787" width="11.3146" height="13.8062" filterUnits="userSpaceOnUse" color-interpolation-filters="sRGB">
<feFlood flood-opacity="0" result="BackgroundImageFix"/>
<feBlend mode="normal" in="SourceGraphic" in2="BackgroundImageFix" result="shape"/>
<feColorMatrix in="SourceAlpha" type="matrix" values="0 0 0 0 0 0 0 0 0 0 0 0 0 0 0 0 0 0 127 0" result="hardAlpha"/>
<feOffset dy="3"/>
<feGaussianBlur stdDeviation="1.5"/>
<feComposite in2="hardAlpha" operator="arithmetic" k2="-1" k3="1"/>
<feColorMatrix type="matrix" values="0 0 0 0 0.270833 0 0 0 0 0.262828 0 0 0 0 0 0 0 0 1 0"/>
<feBlend mode="normal" in2="shape" result="effect1_innerShadow_1448_281"/>
</filter>
<filter id="filter4_d_1448_281" x="48" y="85.615" width="78" height="27" filterUnits="userSpaceOnUse" color-interpolation-filters="sRGB">
<feFlood flood-opacity="0" result="BackgroundImageFix"/>
<feColorMatrix in="SourceAlpha" type="matrix" values="0 0 0 0 0 0 0 0 0 0 0 0 0 0 0 0 0 0 127 0" result="hardAlpha"/>
<feOffset dy="1"/>
<feGaussianBlur stdDeviation="2"/>
<feComposite in2="hardAlpha" operator="out"/>
<feColorMatrix type="matrix" values="0 0 0 0 0 0 0 0 0 0 0 0 0 0 0 0 0 0 1 0"/>
<feBlend mode="normal" in2="BackgroundImageFix" result="effect1_dropShadow_1448_281"/>
<feBlend mode="normal" in="SourceGraphic" in2="effect1_dropShadow_1448_281" result="shape"/>
</filter>
<filter id="filter5_d_1448_281" x="63" y="103.615" width="48" height="26" filterUnits="userSpaceOnUse" color-interpolation-filters="sRGB">
<feFlood flood-opacity="0" result="BackgroundImageFix"/>
<feColorMatrix in="SourceAlpha" type="matrix" values="0 0 0 0 0 0 0 0 0 0 0 0 0 0 0 0 0 0 127 0" result="hardAlpha"/>
<feOffset dy="1"/>
<feGaussianBlur stdDeviation="2"/>
<feComposite in2="hardAlpha" operator="out"/>
<feColorMatrix type="matrix" values="0 0 0 0 0 0 0 0 0 0 0 0 0 0 0 0 0 0 1 0"/>
<feBlend mode="normal" in2="BackgroundImageFix" result="effect1_dropShadow_1448_281"/>
<feBlend mode="normal" in="SourceGraphic" in2="effect1_dropShadow_1448_281" result="shape"/>
</filter>
<linearGradient id="paint0_linear_1448_281" x1="132.718" y1="36.7832" x2="132.718" y2="97.082" gradientUnits="userSpaceOnUse">
<stop stop-color="white"/>
<stop offset="1" stop-color="#BBBBBB" stop-opacity="0"/>
</linearGradient>
<linearGradient id="paint1_linear_1448_281" x1="10.6594" y1="0" x2="10.6594" y2="60.2988" gradientUnits="userSpaceOnUse">
<stop stop-color="white"/>
<stop offset="1" stop-color="#BBBBBB" stop-opacity="0"/>
</linearGradient>
<linearGradient id="paint2_linear_1448_281" x1="47.4426" y1="51.8579" x2="47.4426" y2="112.157" gradientUnits="userSpaceOnUse">
<stop stop-color="white"/>
<stop offset="1" stop-color="#BBBBBB" stop-opacity="0"/>
</linearGradient>
<linearGradient id="paint3_linear_1448_281" x1="10.6594" y1="0" x2="10.6594" y2="60.2988" gradientUnits="userSpaceOnUse">
<stop stop-color="white"/>
<stop offset="1" stop-color="#BBBBBB" stop-opacity="0"/>
</linearGradient>
<linearGradient id="paint4_linear_1448_281" x1="86.9582" y1="26.6594" x2="86.9582" y2="86.9582" gradientUnits="userSpaceOnUse">
<stop stop-color="white"/>
<stop offset="1" stop-color="#BBBBBB" stop-opacity="0"/>
</linearGradient>
<linearGradient id="paint5_linear_1448_281" x1="10.6594" y1="0" x2="10.6594" y2="60.2988" gradientUnits="userSpaceOnUse">
<stop stop-color="white"/>
<stop offset="1" stop-color="#BBBBBB" stop-opacity="0"/>
</linearGradient>
<linearGradient id="paint6_linear_1448_281" x1="37.3187" y1="97.6177" x2="37.3187" y2="157.916" gradientUnits="userSpaceOnUse">
<stop stop-color="white"/>
<stop offset="1" stop-color="#BBBBBB" stop-opacity="0"/>
</linearGradient>
<linearGradient id="paint7_linear_1448_281" x1="10.6594" y1="0" x2="10.6594" y2="60.2988" gradientUnits="userSpaceOnUse">
<stop stop-color="white"/>
<stop offset="1" stop-color="#BBBBBB" stop-opacity="0"/>
</linearGradient>
<linearGradient id="paint8_linear_1448_281" x1="86.9583" y1="41.7034" x2="86.9583" y2="86.9582" gradientUnits="userSpaceOnUse">
<stop stop-color="white"/>
<stop offset="1" stop-color="#1C1C1C" stop-opacity="0"/>
</linearGradient>
<linearGradient id="paint9_linear_1448_281" x1="8" y1="0" x2="8" y2="45.2549" gradientUnits="userSpaceOnUse">
<stop stop-color="white"/>
<stop offset="1" stop-color="#1C1C1C" stop-opacity="0"/>
</linearGradient>
<linearGradient id="paint10_linear_1448_281" x1="49.7034" y1="94.9583" x2="49.7034" y2="140.213" gradientUnits="userSpaceOnUse">
<stop stop-color="white"/>
<stop offset="1" stop-color="#1C1C1C" stop-opacity="0"/>
</linearGradient>
<linearGradient id="paint11_linear_1448_281" x1="8" y1="0" x2="8" y2="45.2549" gradientUnits="userSpaceOnUse">
<stop stop-color="white"/>
<stop offset="1" stop-color="#1C1C1C" stop-opacity="0"/>
</linearGradient>
<linearGradient id="paint12_linear_1448_281" x1="121.302" y1="49.3013" x2="121.302" y2="94.5561" gradientUnits="userSpaceOnUse">
<stop stop-color="white"/>
<stop offset="1" stop-color="#1C1C1C" stop-opacity="0"/>
</linearGradient>
<linearGradient id="paint13_linear_1448_281" x1="8" y1="0" x2="8" y2="45.2549" gradientUnits="userSpaceOnUse">
<stop stop-color="white"/>
<stop offset="1" stop-color="#1C1C1C" stop-opacity="0"/>
</linearGradient>
<linearGradient id="paint14_linear_1448_281" x1="57.3014" y1="60.615" x2="57.3014" y2="105.87" gradientUnits="userSpaceOnUse">
<stop stop-color="white"/>
<stop offset="1" stop-color="#1C1C1C" stop-opacity="0"/>
</linearGradient>
<linearGradient id="paint15_linear_1448_281" x1="8" y1="0" x2="8" y2="45.2549" gradientUnits="userSpaceOnUse">
<stop stop-color="white"/>
<stop offset="1" stop-color="#1C1C1C" stop-opacity="0"/>
</linearGradient>
<linearGradient id="paint16_linear_1448_281" x1="86.9582" y1="48.3494" x2="86.9582" y2="101.683" gradientUnits="userSpaceOnUse">
<stop stop-color="#C2C2C2"/>
<stop offset="0.38" stop-color="#B5B5B5"/>
<stop offset="0.5" stop-color="#A0A0A0"/>
<stop offset="1" stop-color="#444444"/>
</linearGradient>
<linearGradient id="paint17_linear_1448_281" x1="75.5588" y1="50.2938" x2="99.0307" y2="82.2265" gradientUnits="userSpaceOnUse">
<stop stop-color="#FBFBFB"/>
<stop offset="1" stop-color="#5A5A5A"/>
</linearGradient>
<clipPath id="clip0_1448_281">
<rect x="41.7034" y="86.9583" width="64" height="64" rx="10" transform="rotate(-45 41.7034 86.9583)" fill="white"/>
</clipPath>
<clipPath id="clip1_1448_281">
<rect width="80" height="80" fill="white" transform="translate(46.9581 35.0161)"/>
</clipPath>
</defs>
</svg>
