<svg width="1390" height="414" viewBox="0 0 1390 414" fill="none" xmlns="http://www.w3.org/2000/svg">
<rect width="1390" height="414" rx="10" fill="url(#paint0_linear_1204_6)"/>
<rect x="669.5" y="140.691" width="51" height="50.1186" rx="25.0593" fill="white"/>
<rect x="669.5" y="140.691" width="51" height="50.1186" rx="25.0593" stroke="#E6E6E6"/>
<path d="M683 167.114V165.268H694.077V154.191H695.923V165.268H707V167.114H695.923V178.191H694.077V167.114H683Z" fill="black"/>
<path d="M534.873 228.709H537.273C537.406 229.123 537.633 229.509 537.953 229.869C538.659 230.629 539.633 231.009 540.873 231.009C542.939 231.009 543.973 230.276 543.973 228.809C543.973 228.223 543.713 227.743 543.193 227.369C542.686 226.996 541.913 226.809 540.873 226.809H539.073V224.609H540.873C541.753 224.609 542.419 224.423 542.873 224.049C543.339 223.676 543.573 223.196 543.573 222.609C543.573 222.023 543.339 221.543 542.873 221.169C542.419 220.796 541.753 220.609 540.873 220.609C539.753 220.609 538.886 220.943 538.273 221.609C537.993 221.929 537.799 222.263 537.693 222.609H535.273C535.473 221.849 535.806 221.149 536.273 220.509C537.393 219.109 538.926 218.409 540.873 218.409C542.419 218.409 543.653 218.809 544.573 219.609C545.506 220.396 545.973 221.363 545.973 222.509C545.973 223.429 545.619 224.203 544.913 224.829C544.646 225.083 544.299 225.309 543.873 225.509V225.609C544.326 225.769 544.739 226.003 545.113 226.309C545.953 227.043 546.373 227.943 546.373 229.009C546.373 230.236 545.879 231.243 544.893 232.029C543.919 232.816 542.579 233.209 540.873 233.209C538.713 233.209 537.059 232.463 535.913 230.969C535.393 230.276 535.046 229.523 534.873 228.709ZM549.226 231.549C548.319 230.563 547.866 229.283 547.866 227.709C547.866 226.136 548.319 224.863 549.226 223.889C550.146 222.903 551.292 222.409 552.666 222.409C553.532 222.409 554.326 222.663 555.046 223.169C555.352 223.383 555.626 223.629 555.866 223.909H555.966V222.609H558.066V232.809H555.966V231.409H555.866C555.666 231.689 555.392 231.956 555.046 232.209C554.326 232.743 553.532 233.009 552.666 233.009C551.292 233.009 550.146 232.523 549.226 231.549ZM550.866 225.189C550.332 225.776 550.066 226.616 550.066 227.709C550.066 228.803 550.332 229.643 550.866 230.229C551.399 230.816 552.132 231.109 553.066 231.109C553.946 231.109 554.646 230.816 555.166 230.229C555.699 229.629 555.966 228.789 555.966 227.709C555.966 226.629 555.699 225.796 555.166 225.209C554.646 224.609 553.946 224.309 553.066 224.309C552.132 224.309 551.399 224.603 550.866 225.189ZM560.458 232.809V222.609H567.658V224.509H562.558V232.809H560.458ZM569.052 236.609V222.609H571.152V223.909H571.252C571.492 223.629 571.765 223.383 572.072 223.169C572.792 222.663 573.585 222.409 574.452 222.409C575.825 222.409 576.965 222.903 577.872 223.889C578.792 224.863 579.252 226.136 579.252 227.709C579.252 229.283 578.792 230.563 577.872 231.549C576.965 232.523 575.825 233.009 574.452 233.009C573.572 233.009 572.778 232.763 572.072 232.269C571.752 232.043 571.478 231.789 571.252 231.509H571.152V236.609H569.052ZM571.932 225.209C571.412 225.796 571.152 226.629 571.152 227.709C571.152 228.789 571.412 229.629 571.932 230.229C572.465 230.816 573.172 231.109 574.052 231.109C574.985 231.109 575.718 230.816 576.252 230.229C576.785 229.643 577.052 228.803 577.052 227.709C577.052 226.616 576.785 225.776 576.252 225.189C575.718 224.603 574.985 224.309 574.052 224.309C573.172 224.309 572.465 224.609 571.932 225.209ZM579.751 222.609H581.951L584.151 230.809H585.251L587.651 222.609H589.851L585.651 236.609H583.451L584.651 232.809H582.551L579.751 222.609ZM590.146 229.509H592.246C592.299 229.776 592.426 230.043 592.626 230.309C593.053 230.843 593.726 231.109 594.646 231.109C595.366 231.109 595.893 230.989 596.226 230.749C596.573 230.509 596.746 230.196 596.746 229.809C596.746 229.423 596.573 229.109 596.226 228.869C595.893 228.629 595.366 228.509 594.646 228.509H593.546V226.709H594.646C595.913 226.709 596.546 226.309 596.546 225.509C596.546 225.176 596.379 224.896 596.046 224.669C595.713 224.429 595.213 224.309 594.546 224.309C593.839 224.309 593.279 224.529 592.866 224.969C592.719 225.143 592.613 225.356 592.546 225.609H590.446C590.593 224.996 590.833 224.463 591.166 224.009C591.939 222.943 593.099 222.409 594.646 222.409C595.926 222.409 596.913 222.676 597.606 223.209C598.299 223.743 598.646 224.409 598.646 225.209C598.646 225.969 598.346 226.556 597.746 226.969C597.506 227.156 597.206 227.303 596.846 227.409V227.489C597.206 227.569 597.539 227.709 597.846 227.909C598.513 228.363 598.846 229.029 598.846 229.909C598.846 230.803 598.479 231.543 597.746 232.129C597.026 232.716 595.993 233.009 594.646 233.009C592.859 233.009 591.586 232.429 590.826 231.269C590.466 230.723 590.239 230.136 590.146 229.509ZM600.751 232.809V222.609H602.851V229.409L602.831 229.609H603.031L607.651 222.609H609.951V232.809H607.851V226.009L607.871 225.809H607.671L603.051 232.809H600.751ZM611.252 224.509V222.609H620.152V224.509H616.752V232.809H614.652V224.509H611.252ZM622.354 231.489C621.354 230.463 620.854 229.203 620.854 227.709C620.854 226.216 621.354 224.963 622.354 223.949C623.367 222.923 624.601 222.409 626.054 222.409C627.507 222.409 628.734 222.923 629.734 223.949C630.747 224.963 631.254 226.216 631.254 227.709V228.409H622.954C623.114 229.249 623.481 229.909 624.054 230.389C624.627 230.869 625.294 231.109 626.054 231.109C626.987 231.109 627.734 230.876 628.294 230.409C628.547 230.223 628.767 229.989 628.954 229.709H631.154C630.874 230.363 630.521 230.916 630.094 231.369C629.001 232.463 627.654 233.009 626.054 233.009C624.601 233.009 623.367 232.503 622.354 231.489ZM623.054 226.709H629.054C628.934 226.043 628.614 225.476 628.094 225.009C627.587 224.543 626.907 224.309 626.054 224.309C625.334 224.309 624.694 224.529 624.134 224.969C623.574 225.396 623.214 225.976 623.054 226.709ZM638.661 232.809V222.609H640.761V229.409L640.741 229.609H640.941L645.561 222.609H647.861V232.809H645.761V226.009L645.781 225.809H645.581L640.961 232.809H638.661ZM649.463 229.509H651.562C651.616 229.776 651.743 230.043 651.943 230.309C652.369 230.843 653.043 231.109 653.963 231.109C654.683 231.109 655.209 230.989 655.543 230.749C655.889 230.509 656.063 230.196 656.063 229.809C656.063 229.423 655.889 229.109 655.543 228.869C655.209 228.629 654.683 228.509 653.963 228.509H652.863V226.709H653.963C655.229 226.709 655.863 226.309 655.863 225.509C655.863 225.176 655.696 224.896 655.363 224.669C655.029 224.429 654.529 224.309 653.863 224.309C653.156 224.309 652.596 224.529 652.183 224.969C652.036 225.143 651.929 225.356 651.863 225.609H649.763C649.909 224.996 650.149 224.463 650.483 224.009C651.256 222.943 652.416 222.409 653.963 222.409C655.243 222.409 656.229 222.676 656.923 223.209C657.616 223.743 657.963 224.409 657.963 225.209C657.963 225.969 657.663 226.556 657.063 226.969C656.823 227.156 656.523 227.303 656.163 227.409V227.489C656.523 227.569 656.856 227.709 657.163 227.909C657.829 228.363 658.163 229.029 658.163 229.909C658.163 230.803 657.796 231.543 657.063 232.129C656.343 232.716 655.309 233.009 653.963 233.009C652.176 233.009 650.903 232.429 650.143 231.269C649.783 230.723 649.556 230.136 649.463 229.509ZM660.987 231.489C659.974 230.463 659.467 229.203 659.467 227.709C659.467 226.216 659.974 224.963 660.987 223.949C662.014 222.923 663.274 222.409 664.767 222.409C666.261 222.409 667.514 222.923 668.527 223.949C669.554 224.963 670.067 226.216 670.067 227.709C670.067 229.203 669.554 230.463 668.527 231.489C667.514 232.503 666.261 233.009 664.767 233.009C663.274 233.009 662.014 232.503 660.987 231.489ZM662.527 225.249C661.954 225.863 661.667 226.683 661.667 227.709C661.667 228.736 661.954 229.563 662.527 230.189C663.101 230.803 663.847 231.109 664.767 231.109C665.687 231.109 666.434 230.803 667.007 230.189C667.581 229.563 667.867 228.736 667.867 227.709C667.867 226.683 667.581 225.863 667.007 225.249C666.434 224.623 665.687 224.309 664.767 224.309C663.847 224.309 663.101 224.623 662.527 225.249ZM671.364 227.109C671.364 224.229 671.931 222.129 673.064 220.809C674.211 219.476 675.911 218.809 678.164 218.809H680.564V220.709H678.364C676.817 220.709 675.637 221.069 674.824 221.789C674.011 222.509 673.557 223.516 673.464 224.809H673.564C673.711 224.596 673.957 224.363 674.304 224.109C675.051 223.643 675.871 223.409 676.764 223.409C678.084 223.409 679.177 223.863 680.044 224.769C680.924 225.676 681.364 226.823 681.364 228.209C681.364 229.623 680.897 230.776 679.964 231.669C679.044 232.563 677.844 233.009 676.364 233.009C674.871 233.009 673.664 232.489 672.744 231.449C671.824 230.409 671.364 228.963 671.364 227.109ZM674.364 226.129C673.831 226.676 673.564 227.369 673.564 228.209C673.564 229.049 673.831 229.743 674.364 230.289C674.897 230.836 675.564 231.109 676.364 231.109C677.164 231.109 677.831 230.836 678.364 230.289C678.897 229.743 679.164 229.049 679.164 228.209C679.164 227.369 678.897 226.676 678.364 226.129C677.831 225.583 677.164 225.309 676.364 225.309C675.564 225.309 674.897 225.583 674.364 226.129ZM683.055 236.609V222.609H685.155V223.909H685.255C685.495 223.629 685.769 223.383 686.075 223.169C686.795 222.663 687.589 222.409 688.455 222.409C689.829 222.409 690.969 222.903 691.875 223.889C692.795 224.863 693.255 226.136 693.255 227.709C693.255 229.283 692.795 230.563 691.875 231.549C690.969 232.523 689.829 233.009 688.455 233.009C687.575 233.009 686.782 232.763 686.075 232.269C685.755 232.043 685.482 231.789 685.255 231.509H685.155V236.609H683.055ZM685.935 225.209C685.415 225.796 685.155 226.629 685.155 227.709C685.155 228.789 685.415 229.629 685.935 230.229C686.469 230.816 687.175 231.109 688.055 231.109C688.989 231.109 689.722 230.816 690.255 230.229C690.789 229.643 691.055 228.803 691.055 227.709C691.055 226.616 690.789 225.776 690.255 225.189C689.722 224.603 688.989 224.309 688.055 224.309C687.175 224.309 686.469 224.609 685.935 225.209ZM695.808 231.549C694.901 230.563 694.448 229.283 694.448 227.709C694.448 226.136 694.901 224.863 695.808 223.889C696.728 222.903 697.874 222.409 699.248 222.409C700.114 222.409 700.908 222.663 701.628 223.169C701.934 223.383 702.208 223.629 702.448 223.909H702.548V222.609H704.648V232.809H702.548V231.409H702.448C702.248 231.689 701.974 231.956 701.628 232.209C700.908 232.743 700.114 233.009 699.248 233.009C697.874 233.009 696.728 232.523 695.808 231.549ZM697.448 225.189C696.914 225.776 696.648 226.616 696.648 227.709C696.648 228.803 696.914 229.643 697.448 230.229C697.981 230.816 698.714 231.109 699.648 231.109C700.528 231.109 701.228 230.816 701.748 230.229C702.281 229.629 702.548 228.789 702.548 227.709C702.548 226.629 702.281 225.796 701.748 225.209C701.228 224.609 700.528 224.309 699.648 224.309C698.714 224.309 697.981 224.603 697.448 225.189ZM705.94 232.809L709.74 227.309L706.24 222.609H708.64L711.54 226.609H712.84V222.609H714.94V226.609H716.24L719.14 222.609H721.54L718.04 227.309L721.84 232.809H719.34L716.34 228.509H714.94V232.809H712.84V228.509H711.44L708.44 232.809H705.94ZM723.643 231.489C722.643 230.463 722.143 229.203 722.143 227.709C722.143 226.216 722.643 224.963 723.643 223.949C724.656 222.923 725.89 222.409 727.343 222.409C728.796 222.409 730.023 222.923 731.023 223.949C732.036 224.963 732.543 226.216 732.543 227.709V228.409H724.243C724.403 229.249 724.77 229.909 725.343 230.389C725.916 230.869 726.583 231.109 727.343 231.109C728.276 231.109 729.023 230.876 729.583 230.409C729.836 230.223 730.056 229.989 730.243 229.709H732.443C732.163 230.363 731.81 230.916 731.383 231.369C730.29 232.463 728.943 233.009 727.343 233.009C725.89 233.009 724.656 232.503 723.643 231.489ZM724.343 226.709H730.343C730.223 226.043 729.903 225.476 729.383 225.009C728.876 224.543 728.196 224.309 727.343 224.309C726.623 224.309 725.983 224.529 725.423 224.969C724.863 225.396 724.503 225.976 724.343 226.709ZM734.345 232.809V222.609H736.445V226.709H741.445V222.609H743.545V232.809H741.445V228.609H736.445V232.809H734.345ZM745.946 232.809V222.609H748.046V229.409L748.026 229.609H748.226L752.846 222.609H755.146V232.809H753.046V226.009L753.066 225.809H752.866L748.246 232.809H745.946ZM758.448 231.489C757.448 230.463 756.948 229.203 756.948 227.709C756.948 226.216 757.448 224.963 758.448 223.949C759.461 222.923 760.694 222.409 762.148 222.409C763.601 222.409 764.828 222.923 765.828 223.949C766.841 224.963 767.348 226.216 767.348 227.709V228.409H759.048C759.208 229.249 759.574 229.909 760.148 230.389C760.721 230.869 761.388 231.109 762.148 231.109C763.081 231.109 763.828 230.876 764.388 230.409C764.641 230.223 764.861 229.989 765.048 229.709H767.248C766.968 230.363 766.614 230.916 766.188 231.369C765.094 232.463 763.748 233.009 762.148 233.009C760.694 233.009 759.461 232.503 758.448 231.489ZM759.148 226.709H765.148C765.028 226.043 764.708 225.476 764.188 225.009C763.681 224.543 763.001 224.309 762.148 224.309C761.428 224.309 760.788 224.529 760.228 224.969C759.668 225.396 759.308 225.976 759.148 226.709ZM774.255 227.109C774.255 224.229 774.821 222.129 775.955 220.809C777.101 219.476 778.801 218.809 781.055 218.809H783.455V220.709H781.255C779.708 220.709 778.528 221.069 777.715 221.789C776.901 222.509 776.448 223.516 776.355 224.809H776.455C776.601 224.596 776.848 224.363 777.195 224.109C777.941 223.643 778.761 223.409 779.655 223.409C780.975 223.409 782.068 223.863 782.935 224.769C783.815 225.676 784.255 226.823 784.255 228.209C784.255 229.623 783.788 230.776 782.855 231.669C781.935 232.563 780.735 233.009 779.255 233.009C777.761 233.009 776.555 232.489 775.635 231.449C774.715 230.409 774.255 228.963 774.255 227.109ZM777.255 226.129C776.721 226.676 776.455 227.369 776.455 228.209C776.455 229.049 776.721 229.743 777.255 230.289C777.788 230.836 778.455 231.109 779.255 231.109C780.055 231.109 780.721 230.836 781.255 230.289C781.788 229.743 782.055 229.049 782.055 228.209C782.055 227.369 781.788 226.676 781.255 226.129C780.721 225.583 780.055 225.309 779.255 225.309C778.455 225.309 777.788 225.583 777.255 226.129ZM786.706 231.549C785.799 230.563 785.346 229.283 785.346 227.709C785.346 226.136 785.799 224.863 786.706 223.889C787.626 222.903 788.773 222.409 790.146 222.409C791.013 222.409 791.806 222.663 792.526 223.169C792.833 223.383 793.106 223.629 793.346 223.909H793.446V222.609H795.546V232.809H793.446V231.409H793.346C793.146 231.689 792.873 231.956 792.526 232.209C791.806 232.743 791.013 233.009 790.146 233.009C788.773 233.009 787.626 232.523 786.706 231.549ZM788.346 225.189C787.813 225.776 787.546 226.616 787.546 227.709C787.546 228.803 787.813 229.643 788.346 230.229C788.879 230.816 789.613 231.109 790.546 231.109C791.426 231.109 792.126 230.816 792.646 230.229C793.179 229.629 793.446 228.789 793.446 227.709C793.446 226.629 793.179 225.796 792.646 225.209C792.126 224.609 791.426 224.309 790.546 224.309C789.613 224.309 788.879 224.603 788.346 225.189ZM797.938 232.809V222.609H800.038V226.709H805.038V222.609H807.138V232.809H805.038V228.609H800.038V232.809H797.938ZM809.54 232.809V222.609H811.64V226.709H816.64V222.609H818.74V232.809H816.64V228.609H811.64V232.809H809.54ZM822.041 231.489C821.041 230.463 820.541 229.203 820.541 227.709C820.541 226.216 821.041 224.963 822.041 223.949C823.055 222.923 824.288 222.409 825.741 222.409C827.195 222.409 828.421 222.923 829.421 223.949C830.435 224.963 830.941 226.216 830.941 227.709V228.409H822.641C822.801 229.249 823.168 229.909 823.741 230.389C824.315 230.869 824.981 231.109 825.741 231.109C826.675 231.109 827.421 230.876 827.981 230.409C828.235 230.223 828.455 229.989 828.641 229.709H830.841C830.561 230.363 830.208 230.916 829.781 231.369C828.688 232.463 827.341 233.009 825.741 233.009C824.288 233.009 823.055 232.503 822.041 231.489ZM822.741 226.709H828.741C828.621 226.043 828.301 225.476 827.781 225.009C827.275 224.543 826.595 224.309 825.741 224.309C825.021 224.309 824.381 224.529 823.821 224.969C823.261 225.396 822.901 225.976 822.741 226.709ZM832.743 236.609V222.609H834.843V223.909H834.943C835.183 223.629 835.456 223.383 835.763 223.169C836.483 222.663 837.276 222.409 838.143 222.409C839.516 222.409 840.656 222.903 841.563 223.889C842.483 224.863 842.943 226.136 842.943 227.709C842.943 229.283 842.483 230.563 841.563 231.549C840.656 232.523 839.516 233.009 838.143 233.009C837.263 233.009 836.47 232.763 835.763 232.269C835.443 232.043 835.17 231.789 834.943 231.509H834.843V236.609H832.743ZM835.623 225.209C835.103 225.796 834.843 226.629 834.843 227.709C834.843 228.789 835.103 229.629 835.623 230.229C836.156 230.816 836.863 231.109 837.743 231.109C838.676 231.109 839.41 230.816 839.943 230.229C840.476 229.643 840.743 228.803 840.743 227.709C840.743 226.616 840.476 225.776 839.943 225.189C839.41 224.603 838.676 224.309 837.743 224.309C836.863 224.309 836.156 224.609 835.623 225.209ZM845.495 231.549C844.588 230.563 844.135 229.283 844.135 227.709C844.135 226.136 844.588 224.863 845.495 223.889C846.415 222.903 847.562 222.409 848.935 222.409C849.802 222.409 850.595 222.663 851.315 223.169C851.622 223.383 851.895 223.629 852.135 223.909H852.235V222.609H854.335V232.809H852.235V231.409H852.135C851.935 231.689 851.662 231.956 851.315 232.209C850.595 232.743 849.802 233.009 848.935 233.009C847.562 233.009 846.415 232.523 845.495 231.549ZM847.135 225.189C846.602 225.776 846.335 226.616 846.335 227.709C846.335 228.803 846.602 229.643 847.135 230.229C847.668 230.816 848.402 231.109 849.335 231.109C850.215 231.109 850.915 230.816 851.435 230.229C851.968 229.629 852.235 228.789 852.235 227.709C852.235 226.629 851.968 225.796 851.435 225.209C850.915 224.609 850.215 224.309 849.335 224.309C848.402 224.309 847.668 224.603 847.135 225.189ZM587.253 261.633C586.291 260.653 585.811 259.412 585.811 257.909C585.811 256.407 586.291 255.17 587.253 254.199C588.223 253.219 589.446 252.729 590.921 252.729C592.395 252.729 593.613 253.219 594.575 254.199C595.545 255.17 596.031 256.407 596.031 257.909C596.031 259.412 595.545 260.653 594.575 261.633C593.613 262.604 592.395 263.089 590.921 263.089C589.446 263.089 588.223 262.604 587.253 261.633ZM588.149 255.025C587.43 255.763 587.071 256.724 587.071 257.909C587.071 259.095 587.43 260.056 588.149 260.793C588.867 261.531 589.791 261.899 590.921 261.899C592.05 261.899 592.974 261.531 593.693 260.793C594.411 260.056 594.771 259.095 594.771 257.909C594.771 256.724 594.411 255.763 593.693 255.025C592.974 254.288 592.05 253.919 590.921 253.919C589.791 253.919 588.867 254.288 588.149 255.025ZM597.645 262.809V255.809H603.735V262.809H602.615V256.859H598.765V262.809H597.645ZM604.788 256.859V255.809H610.808V256.859H608.358V262.809H607.238V256.859H604.788ZM611.864 262.809V255.809H612.984V261.059L612.97 261.199H612.998L616.764 255.809H618.024V262.809H616.904V257.559L616.918 257.419H616.89L613.124 262.809H611.864ZM619.985 262.809V255.809H621.665L623.765 260.149H624.115L626.215 255.809H627.895V262.809H626.775V257.209L626.789 257.069H626.761L624.675 261.409H623.205L621.119 257.069H621.091L621.105 257.209V262.809H619.985ZM630.416 261.913C629.763 261.213 629.436 260.345 629.436 259.309C629.436 258.273 629.763 257.41 630.416 256.719C631.069 256.019 631.863 255.669 632.796 255.669C633.384 255.669 633.879 255.781 634.28 256.005C634.691 256.229 634.989 256.472 635.176 256.733L635.302 256.943H635.316V255.809H636.436V262.809H635.316V261.689H635.302L635.176 261.885C635.008 262.137 634.719 262.38 634.308 262.613C633.897 262.837 633.393 262.949 632.796 262.949C631.863 262.949 631.069 262.604 630.416 261.913ZM631.228 257.447C630.78 257.933 630.556 258.553 630.556 259.309C630.556 260.065 630.78 260.686 631.228 261.171C631.685 261.657 632.255 261.899 632.936 261.899C633.617 261.899 634.182 261.657 634.63 261.171C635.087 260.686 635.316 260.065 635.316 259.309C635.316 258.553 635.087 257.933 634.63 257.447C634.182 256.962 633.617 256.719 632.936 256.719C632.255 256.719 631.685 256.962 631.228 257.447ZM637.561 262.809L639.521 255.809H642.461L644.421 262.809H643.231L641.621 256.859H640.361L638.751 262.809H637.561ZM645.538 262.809V255.809H646.658V258.189H648.618C649.402 258.189 650.041 258.413 650.536 258.861C651.03 259.3 651.278 259.846 651.278 260.499C651.278 261.153 651.03 261.703 650.536 262.151C650.041 262.59 649.402 262.809 648.618 262.809H645.538ZM646.658 261.759H648.618C649.103 261.759 649.481 261.643 649.752 261.409C650.022 261.176 650.158 260.873 650.158 260.499C650.158 260.126 650.022 259.823 649.752 259.589C649.481 259.356 649.103 259.239 648.618 259.239H646.658V261.759ZM652.606 262.809V255.809H653.726V258.679H657.646V255.809H658.766V262.809H657.646V259.729H653.726V262.809H652.606ZM667.097 262.809V255.809H668.217V262.809H667.097ZM660.727 262.809V255.809H661.847V258.189H663.527C664.311 258.189 664.95 258.413 665.445 258.861C665.94 259.3 666.187 259.846 666.187 260.499C666.187 261.153 665.94 261.703 665.445 262.151C664.95 262.59 664.311 262.809 663.527 262.809H660.727ZM661.847 261.759H663.527C664.012 261.759 664.39 261.643 664.661 261.409C664.932 261.176 665.067 260.873 665.067 260.499C665.067 260.126 664.932 259.823 664.661 259.589C664.39 259.356 664.012 259.239 663.527 259.239H661.847V261.759ZM670.776 261.913C670.095 261.223 669.754 260.355 669.754 259.309C669.754 258.264 670.095 257.396 670.776 256.705C671.458 256.015 672.307 255.669 673.324 255.669C674.342 255.669 675.191 256.01 675.872 256.691C676.554 257.373 676.894 258.222 676.894 259.239V259.659H670.874C670.949 260.313 671.215 260.849 671.672 261.269C672.13 261.689 672.68 261.899 673.324 261.899C674.015 261.899 674.608 261.689 675.102 261.269C675.326 261.083 675.504 260.873 675.634 260.639H676.754C676.586 261.078 676.348 261.465 676.04 261.801C675.312 262.567 674.407 262.949 673.324 262.949C672.307 262.949 671.458 262.604 670.776 261.913ZM670.902 258.679H675.704C675.62 258.129 675.364 257.667 674.934 257.293C674.505 256.911 673.968 256.719 673.324 256.719C672.68 256.719 672.139 256.911 671.7 257.293C671.262 257.667 670.996 258.129 670.902 258.679ZM682.356 265.469V255.809H683.476V256.929H683.49L683.63 256.719C683.789 256.477 684.073 256.243 684.484 256.019C684.895 255.786 685.399 255.669 685.996 255.669C686.929 255.669 687.723 256.019 688.376 256.719C689.029 257.41 689.356 258.273 689.356 259.309C689.356 260.345 689.029 261.213 688.376 261.913C687.723 262.604 686.929 262.949 685.996 262.949C685.399 262.949 684.89 262.837 684.47 262.613C684.059 262.38 683.779 262.137 683.63 261.885L683.49 261.689H683.476V265.469H682.356ZM684.148 257.447C683.7 257.933 683.476 258.553 683.476 259.309C683.476 260.065 683.7 260.686 684.148 261.171C684.605 261.657 685.175 261.899 685.856 261.899C686.537 261.899 687.102 261.657 687.55 261.171C688.007 260.686 688.236 260.065 688.236 259.309C688.236 258.553 688.007 257.933 687.55 257.447C687.102 256.962 686.537 256.719 685.856 256.719C685.175 256.719 684.605 256.962 684.148 257.447ZM691.461 261.913C690.808 261.213 690.481 260.345 690.481 259.309C690.481 258.273 690.808 257.41 691.461 256.719C692.114 256.019 692.908 255.669 693.841 255.669C694.429 255.669 694.924 255.781 695.325 256.005C695.736 256.229 696.034 256.472 696.221 256.733L696.347 256.943H696.361V255.809H697.481V262.809H696.361V261.689H696.347L696.221 261.885C696.053 262.137 695.764 262.38 695.353 262.613C694.942 262.837 694.438 262.949 693.841 262.949C692.908 262.949 692.114 262.604 691.461 261.913ZM692.273 257.447C691.825 257.933 691.601 258.553 691.601 259.309C691.601 260.065 691.825 260.686 692.273 261.171C692.73 261.657 693.3 261.899 693.981 261.899C694.662 261.899 695.227 261.657 695.675 261.171C696.132 260.686 696.361 260.065 696.361 259.309C696.361 258.553 696.132 257.933 695.675 257.447C695.227 256.962 694.662 256.719 693.981 256.719C693.3 256.719 692.73 256.962 692.273 257.447ZM698.746 260.639H699.866C699.922 260.873 700.029 261.083 700.188 261.269C700.533 261.689 701.079 261.899 701.826 261.899C702.386 261.899 702.815 261.792 703.114 261.577C703.422 261.353 703.576 261.087 703.576 260.779C703.576 260.471 703.436 260.219 703.156 260.023C702.876 259.827 702.456 259.729 701.896 259.729H701.056V258.679H701.896C702.922 258.679 703.436 258.353 703.436 257.699C703.436 257.429 703.296 257.2 703.016 257.013C702.745 256.817 702.348 256.719 701.826 256.719C701.228 256.719 700.752 256.897 700.398 257.251C700.267 257.382 700.16 257.555 700.076 257.769H698.956C699.04 257.387 699.203 257.037 699.446 256.719C699.996 256.019 700.79 255.669 701.826 255.669C702.703 255.669 703.375 255.856 703.842 256.229C704.318 256.603 704.556 257.069 704.556 257.629C704.556 258.385 704.168 258.894 703.394 259.155L703.366 259.169V259.183C703.394 259.183 703.45 259.197 703.534 259.225C703.618 259.253 703.725 259.309 703.856 259.393C703.996 259.468 704.126 259.566 704.248 259.687C704.369 259.799 704.472 259.958 704.556 260.163C704.649 260.369 704.696 260.597 704.696 260.849C704.696 261.447 704.444 261.946 703.94 262.347C703.436 262.749 702.731 262.949 701.826 262.949C700.659 262.949 699.796 262.567 699.236 261.801C698.993 261.456 698.83 261.069 698.746 260.639ZM706.241 262.809V255.809H707.921L710.021 260.149H710.371L712.471 255.809H714.151V262.809H713.031V257.209L713.045 257.069H713.017L710.931 261.409H709.461L707.375 257.069H707.347L707.361 257.209V262.809H706.241ZM716.714 261.913C716.033 261.223 715.692 260.355 715.692 259.309C715.692 258.264 716.033 257.396 716.714 256.705C717.395 256.015 718.245 255.669 719.262 255.669C720.279 255.669 721.129 256.01 721.81 256.691C722.491 257.373 722.832 258.222 722.832 259.239V259.659H716.812C716.887 260.313 717.153 260.849 717.61 261.269C718.067 261.689 718.618 261.899 719.262 261.899C719.953 261.899 720.545 261.689 721.04 261.269C721.264 261.083 721.441 260.873 721.572 260.639H722.692C722.524 261.078 722.286 261.465 721.978 261.801C721.25 262.567 720.345 262.949 719.262 262.949C718.245 262.949 717.395 262.604 716.714 261.913ZM716.84 258.679H721.642C721.558 258.129 721.301 257.667 720.872 257.293C720.443 256.911 719.906 256.719 719.262 256.719C718.618 256.719 718.077 256.911 717.638 257.293C717.199 257.667 716.933 258.129 716.84 258.679ZM724.37 265.469V255.809H725.49V256.929H725.504L725.644 256.719C725.802 256.477 726.087 256.243 726.498 256.019C726.908 255.786 727.412 255.669 728.01 255.669C728.943 255.669 729.736 256.019 730.39 256.719C731.043 257.41 731.37 258.273 731.37 259.309C731.37 260.345 731.043 261.213 730.39 261.913C729.736 262.604 728.943 262.949 728.01 262.949C727.412 262.949 726.904 262.837 726.484 262.613C726.073 262.38 725.793 262.137 725.644 261.885L725.504 261.689H725.49V265.469H724.37ZM726.162 257.447C725.714 257.933 725.49 258.553 725.49 259.309C725.49 260.065 725.714 260.686 726.162 261.171C726.619 261.657 727.188 261.899 727.87 261.899C728.551 261.899 729.116 261.657 729.564 261.171C730.021 260.686 730.25 260.065 730.25 259.309C730.25 258.553 730.021 257.933 729.564 257.447C729.116 256.962 728.551 256.719 727.87 256.719C727.188 256.719 726.619 256.962 726.162 257.447ZM739.285 262.809V255.809H740.405V262.809H739.285ZM732.915 262.809V255.809H734.035V258.189H735.715C736.499 258.189 737.138 258.413 737.633 258.861C738.127 259.3 738.375 259.846 738.375 260.499C738.375 261.153 738.127 261.703 737.633 262.151C737.138 262.59 736.499 262.809 735.715 262.809H732.915ZM734.035 261.759H735.715C736.2 261.759 736.578 261.643 736.849 261.409C737.119 261.176 737.255 260.873 737.255 260.499C737.255 260.126 737.119 259.823 736.849 259.589C736.578 259.356 736.2 259.239 735.715 259.239H734.035V261.759ZM745.656 255.879V254.479L747.546 253.009H748.666V262.809H747.406V254.549L745.656 255.879ZM750.14 260.149H751.47C751.554 260.495 751.699 260.789 751.904 261.031C752.371 261.61 753.043 261.899 753.92 261.899C754.676 261.899 755.259 261.717 755.67 261.353C756.09 260.989 756.3 260.518 756.3 259.939C756.3 259.361 756.095 258.889 755.684 258.525C755.273 258.161 754.709 257.979 753.99 257.979H751.96V256.859L755.236 254.213L755.25 254.199H750.63V253.009H757V254.199L753.92 256.677L753.794 256.775L753.78 256.789H753.99C755.017 256.789 755.866 257.102 756.538 257.727C757.219 258.343 757.56 259.081 757.56 259.939C757.56 260.807 757.215 261.549 756.524 262.165C755.843 262.781 754.975 263.089 753.92 263.089C752.52 263.089 751.479 262.599 750.798 261.619C750.481 261.171 750.261 260.681 750.14 260.149ZM758.676 256.159C758.676 255.198 759.026 254.386 759.726 253.723C760.426 253.061 761.313 252.729 762.386 252.729C763.46 252.729 764.346 253.061 765.046 253.723C765.746 254.386 766.096 255.198 766.096 256.159C766.096 256.617 766.008 257.069 765.83 257.517C765.662 257.965 765.49 258.325 765.312 258.595C765.135 258.866 764.86 259.244 764.486 259.729L762.106 262.809H760.636L763.226 259.533L763.268 259.477L763.282 259.463C763.03 259.547 762.708 259.589 762.316 259.589C761.28 259.589 760.412 259.258 759.712 258.595C759.022 257.923 758.676 257.111 758.676 256.159ZM760.608 254.563C760.16 254.983 759.936 255.515 759.936 256.159C759.936 256.803 760.16 257.34 760.608 257.769C761.066 258.189 761.658 258.399 762.386 258.399C763.114 258.399 763.702 258.189 764.15 257.769C764.608 257.34 764.836 256.803 764.836 256.159C764.836 255.515 764.608 254.983 764.15 254.563C763.702 254.134 763.114 253.919 762.386 253.919C761.658 253.919 761.066 254.134 760.608 254.563ZM768.719 261.647C767.86 260.686 767.431 259.44 767.431 257.909C767.431 256.379 767.86 255.133 768.719 254.171C769.578 253.21 770.618 252.729 771.841 252.729C773.064 252.729 774.104 253.21 774.963 254.171C775.822 255.133 776.251 256.379 776.251 257.909C776.251 259.44 775.822 260.686 774.963 261.647C774.104 262.609 773.064 263.089 771.841 263.089C770.618 263.089 769.578 262.609 768.719 261.647ZM769.573 254.983C768.985 255.683 768.691 256.659 768.691 257.909C768.691 259.16 768.985 260.14 769.573 260.849C770.17 261.549 770.926 261.899 771.841 261.899C772.756 261.899 773.507 261.549 774.095 260.849C774.692 260.14 774.991 259.16 774.991 257.909C774.991 256.659 774.692 255.683 774.095 254.983C773.507 254.274 772.756 253.919 771.841 253.919C770.926 253.919 770.17 254.274 769.573 254.983ZM777.164 262.809L779.264 259.239L777.234 255.809H778.494L780.174 258.679H780.804L782.484 255.809H783.744L781.714 259.239L783.814 262.809H782.554L780.804 259.729H780.174L778.424 262.809H777.164ZM784.236 260.709V259.519L787.666 253.009H789.066L785.636 259.519H789.346V256.999H789.416H790.606V259.519H792.076V260.709H790.606V262.809H789.346V260.709H784.236ZM792.496 255.879V254.479L794.386 253.009H795.506V262.809H794.246V254.549L792.496 255.879ZM796.91 260.709V259.519L800.34 253.009H801.74L798.31 259.519H802.02V256.999H802.09H803.28V259.519H804.75V260.709H803.28V262.809H802.02V260.709H796.91Z" fill="white"/>
<defs>
<linearGradient id="paint0_linear_1204_6" x1="695" y1="414" x2="695" y2="0" gradientUnits="userSpaceOnUse">
<stop stop-color="#1B1B1B"/>
<stop offset="1" stop-color="#1B1B1B" stop-opacity="0.7"/>
</linearGradient>
</defs>
</svg>
