<svg width="141" height="141" viewBox="0 0 141 141" fill="none" xmlns="http://www.w3.org/2000/svg">
<rect x="5" y="5" width="131" height="131" rx="65.5" fill="#FF3434"/>
<rect x="5" y="5" width="131" height="131" rx="65.5" stroke="#F9F9F9" stroke-width="10"/>
<path d="M71 37.6667C75.4202 37.6667 79.6595 39.4226 82.7851 42.5482C85.9107 45.6738 87.6666 49.913 87.6666 54.3333C87.6666 58.7536 85.9107 62.9928 82.7851 66.1184C79.6595 69.244 75.4202 71 71 71C66.5797 71 62.3405 69.244 59.2148 66.1184C56.0892 62.9928 54.3333 58.7536 54.3333 54.3333C54.3333 49.913 56.0892 45.6738 59.2148 42.5482C62.3405 39.4226 66.5797 37.6667 71 37.6667ZM71 79.3333C89.4166 79.3333 104.333 86.7917 104.333 96C104.333 100.602 100.602 104.333 96 104.333H46C41.3976 104.333 37.6666 100.602 37.6666 96C37.6666 86.7917 52.5833 79.3333 71 79.3333Z" fill="white"/>
</svg>
