<svg width="121" height="12" viewBox="0 0 121 12" fill="none" xmlns="http://www.w3.org/2000/svg">
<path d="M0 12V0H11V2.4H2.2V9.6H11V12H0Z" fill="white"/>
<path d="M46.2 12H44V0H46.2L52.8 8.5125V0H55V12H52.8L46.2 3.75V12Z" fill="white"/>
<path d="M70.4 12L66 0H68.5094L71.5 8.4L74.4906 0H77L72.6 12H70.4Z" fill="white"/>
<path d="M121 0V2.4H112.2V4.8H121V12H110V9.6H118.8V7.2H110V0H121Z" fill="white"/>
<path d="M25.3687 9.6L24.5094 12H22L26.4 0H28.6L33 12H30.4906L29.6313 9.6L28.7719 7.2L27.5 3.6L25.3687 9.6Z" fill="#FF4400"/>
<path d="M91.3688 9.6L90.5094 12H88L92.4 0H94.6L99 12H96.4906L95.6312 9.6L94.7719 7.2L93.5 3.6L92.2281 7.2L91.3688 9.6Z" fill="#FF4400"/>
</svg>
